<svg width="37" height="38" viewBox="0 0 37 29" fill="none" xmlns="http://www.w3.org/2000/svg">
<path opacity="0.75" d="M5.09684 16.9159L5.01836 20.5271C5.01836 21.8068 5.71956 22.9988 6.84148 23.6124L15.6065 28.3981C16.6583 28.9765 17.9204 28.9765 18.9722 28.3981C18.9722 28.3981 26.6153 24.2259 27.7372 23.6124C28.8591 22.9988 29.5603 21.8068 29.5603 20.5271C29.5603 19.2474 29.6388 16.9159 29.6388 16.9159L19.0507 22.7008C17.9989 23.2793 16.7368 23.2793 15.685 22.7008L10.3909 19.8084L5.09684 16.9159ZM15.685 1.05512L0.907177 9.11891C-0.302392 9.78505 -0.302392 11.5381 0.907177 12.2042L15.685 20.268C16.7368 20.8465 17.9989 20.8465 19.0507 20.268L33.1448 12.5723V22.9325C33.1448 23.8967 33.9337 24.6855 34.8978 24.6855C35.862 24.6855 36.6508 23.8967 36.6508 22.9325V11.6958C36.6508 11.0472 36.3002 10.4687 35.7393 10.1532L19.0507 1.05512C18.5328 0.77889 17.9548 0.634399 17.3678 0.634399C16.7808 0.634399 16.2029 0.77889 15.685 1.05512Z" fill="#CCCCCC"/>
</svg>
