<svg width="191" height="46" viewBox="0 0 191 46" fill="none" xmlns="http://www.w3.org/2000/svg">
<path d="M72.7349 16.5017C71.7164 16.5017 70.7857 16.87 69.9603 17.6066C69.135 18.3432 68.4853 19.3604 68.0111 20.6583C67.537 21.9561 67.3087 23.3592 67.3087 24.8675C67.3087 26.1303 67.5721 27.0774 68.0989 27.7087C68.6257 28.3401 69.3984 28.6383 70.3818 28.6383C71.172 28.6383 71.9622 28.533 72.77 28.3401C73.3846 28.1998 74.087 27.9718 74.8772 27.6561C75.2284 27.5158 75.6148 27.7789 75.6148 28.1647V31.5847C75.6148 31.7952 75.4918 32.0056 75.2811 32.0758C73.4548 32.83 71.4705 33.2158 69.3457 33.2158C66.8873 33.2158 64.9908 32.5143 63.6562 31.1112C62.3216 29.7081 61.6543 27.7087 61.6543 25.1481C61.6543 22.6226 62.1284 20.3251 63.0942 18.2205C64.0601 16.1158 65.3595 14.5374 67.0102 13.4675C68.6609 12.3977 70.5574 11.854 72.6822 11.854C75.0177 11.854 77.1601 12.3977 79.0917 13.4675C79.3376 13.6078 79.4254 13.9235 79.3024 14.1691L77.6693 17.5365C77.5288 17.8171 77.1952 17.9223 76.9142 17.7645C76.2294 17.3786 75.5796 17.0805 74.9826 16.87C74.2977 16.642 73.5251 16.5017 72.7349 16.5017Z" fill="url(#paint0_linear_740_97)"/>
<path d="M83.9384 32.9702H79.5483C79.1971 32.9702 78.9513 32.6545 79.0215 32.3213L82.1824 17.3084C82.2351 17.0628 82.4634 16.8875 82.7092 16.8875H87.1344C87.4856 16.8875 87.7315 17.2031 87.6612 17.5364L84.4653 32.5493C84.4126 32.7948 84.2018 32.9702 83.9384 32.9702Z" fill="url(#paint1_linear_740_97)"/>
<path d="M82.9375 13.3447C82.9375 12.3626 83.2185 11.626 83.7804 11.1349C84.3423 10.6263 85.1325 10.3807 86.1511 10.3807C87.0115 10.3807 87.6788 10.5561 88.1529 10.9069C88.6271 11.2577 88.8553 11.7487 88.8553 12.3977C88.8553 13.3447 88.5744 14.0813 88.03 14.59C87.4856 15.0986 86.6954 15.3616 85.6594 15.3616C83.8506 15.3441 82.9375 14.6777 82.9375 13.3447Z" fill="url(#paint2_linear_740_97)"/>
<path d="M99.1982 22.1665C99.1982 21.7632 99.0929 21.4475 98.8821 21.2545C98.6714 21.0441 98.4256 20.9564 98.127 20.9564C97.5827 20.9564 97.091 21.2896 96.6344 21.9561C96.1778 22.6225 95.7915 23.6748 95.5105 25.113L93.9477 32.5317C93.895 32.7773 93.6667 32.9527 93.4209 32.9527H89.0308C88.6796 32.9527 88.4337 32.637 88.504 32.3037L91.6824 17.2909C91.7351 17.0453 91.9633 16.8699 92.2092 16.8699H95.5808C95.8969 16.8699 96.1427 17.133 96.1252 17.4487L96.0022 19.1148H96.1076C96.6344 18.2204 97.249 17.5715 97.9514 17.1681C98.6538 16.7822 99.5143 16.5718 100.55 16.5718C101.885 16.5718 102.921 16.9752 103.676 17.7819C104.431 18.5887 104.8 19.7112 104.8 21.1493C104.8 22.149 104.677 23.2364 104.449 24.3939L102.728 32.5142C102.675 32.7597 102.447 32.9351 102.201 32.9351H97.7934C97.4422 32.9351 97.1963 32.6194 97.2666 32.2862L98.9699 24.1659C99.1104 23.4468 99.1982 22.7804 99.1982 22.1665Z" fill="url(#paint3_linear_740_97)"/>
<path d="M141.695 32.9702H137.304C136.953 32.9702 136.707 32.6545 136.778 32.3213L139.956 17.3084C140.009 17.0628 140.237 16.8875 140.483 16.8875H144.908C145.259 16.8875 145.505 17.2031 145.435 17.5364L142.239 32.5493C142.169 32.7948 141.958 32.9702 141.695 32.9702Z" fill="url(#paint4_linear_740_97)"/>
<path d="M140.711 13.3447C140.711 12.3626 140.992 11.626 141.554 11.1349C142.116 10.6263 142.906 10.3807 143.925 10.3807C144.785 10.3807 145.452 10.5561 145.927 10.9069C146.401 11.2577 146.629 11.7487 146.629 12.3977C146.629 13.3447 146.348 14.0813 145.804 14.59C145.259 15.0986 144.469 15.3616 143.433 15.3616C141.607 15.3441 140.711 14.6777 140.711 13.3447Z" fill="url(#paint5_linear_740_97)"/>
<path d="M160.993 18.1854C160.15 17.1331 158.991 16.6069 157.516 16.6069C155.989 16.6069 154.759 17.3085 153.846 18.694H153.741L153.864 17.4839C153.899 17.1682 153.635 16.8875 153.319 16.8875H149.965C149.702 16.8875 149.491 17.0629 149.439 17.3085L144.768 39.3017C144.697 39.6349 144.961 39.9506 145.294 39.9506H149.684C149.948 39.9506 150.159 39.7752 150.211 39.5121L150.843 36.4429C151.265 34.4961 151.528 32.7423 151.634 31.1814H151.739C152.564 32.5494 153.671 33.2334 155.023 33.2334C156.322 33.2334 157.516 32.7774 158.605 31.8654C159.694 30.9534 160.572 29.638 161.239 27.9543C161.906 26.2531 162.24 24.4466 162.24 22.5174C162.258 20.6758 161.836 19.2377 160.993 18.1854ZM156.252 25.8497C155.989 26.7617 155.655 27.4808 155.233 28.0244C154.812 28.5681 154.373 28.8312 153.916 28.8312C153.513 28.8312 153.214 28.6383 152.986 28.27C152.775 27.9017 152.652 27.4106 152.652 26.7968C152.652 25.8497 152.775 24.9201 153.021 23.9906C153.267 23.0786 153.618 22.342 154.039 21.7983C154.461 21.2546 154.917 20.9915 155.392 20.9915C156.199 20.9915 156.621 21.6755 156.621 23.0435C156.638 24.0081 156.515 24.9377 156.252 25.8497Z" fill="url(#paint6_linear_740_97)"/>
<path d="M168.843 32.9703H164.453C164.101 32.9703 163.856 32.6546 163.926 32.3214L168.369 11.3103C168.421 11.0648 168.65 10.8894 168.895 10.8894H173.286C173.637 10.8894 173.883 11.2051 173.812 11.5383L169.37 32.5318C169.317 32.7949 169.106 32.9703 168.843 32.9703Z" fill="url(#paint7_linear_740_97)"/>
<path d="M116.056 32.9703H106.802C106.486 32.9703 106.275 32.7072 106.346 32.3915L106.89 29.7958C106.96 29.4801 107.276 29.217 107.592 29.217H116.847C117.163 29.217 117.374 29.4801 117.303 29.7958L116.759 32.3915C116.689 32.7072 116.373 32.9703 116.056 32.9703Z" fill="url(#paint8_linear_740_97)"/>
<path d="M119.832 26.4986H107.434C107.118 26.4986 106.908 26.2355 106.978 25.9198L107.505 23.4294C107.575 23.1137 107.891 22.8506 108.207 22.8506H120.605C120.921 22.8506 121.132 23.1137 121.061 23.4294L120.535 25.9198C120.464 26.2355 120.166 26.4986 119.832 26.4986Z" fill="url(#paint9_linear_740_97)"/>
<path d="M135.689 16.8173C135.566 16.6595 135.355 16.6419 135.32 16.6419C134.916 16.6419 133.898 16.6419 132.546 16.6419L133.055 14.3093C133.125 13.9761 132.879 13.6604 132.528 13.6604H129.841C129.648 13.6604 129.473 13.7656 129.367 13.941L127.822 16.6595C123.941 16.6595 119.867 16.6595 118.954 16.6595C116.952 16.6595 114.037 16.6595 112.035 16.6595C111.719 16.6595 111.403 16.9225 111.333 17.2382L110.806 19.7287C110.736 20.0444 110.946 20.3075 111.263 20.3075H126.294C126.206 20.5705 126.154 20.8161 126.101 21.0441C125.803 22.4998 124.907 26.7616 124.907 26.7616C124.679 27.8139 124.573 28.7084 124.573 29.4274C124.573 30.7954 124.942 31.7951 125.662 32.3914C126.382 32.9877 127.453 33.2859 128.858 33.2859C130.632 33.2859 132.142 33.0228 133.371 32.4791C133.564 32.3914 133.687 32.1985 133.687 31.9881V28.989C133.687 28.6207 133.318 28.3576 132.967 28.4804C132.195 28.7434 131.562 28.8838 131.088 28.8838C130.491 28.8838 130.193 28.5856 130.193 27.9893C130.193 27.7262 130.263 27.2351 130.421 26.4985L131.773 20.325H134.583C134.899 20.325 135.215 20.0619 135.285 19.7462L135.812 17.2558C135.812 17.0629 135.777 16.905 135.689 16.8173Z" fill="url(#paint10_linear_740_97)"/>
<path d="M182.715 32.9701H173.461C173.145 32.9701 172.934 32.7071 173.005 32.3914L173.549 29.7957C173.619 29.48 173.935 29.2169 174.251 29.2169H183.506C183.822 29.2169 184.032 29.48 183.962 29.7957L183.418 32.3914C183.348 32.7071 183.031 32.9701 182.715 32.9701Z" fill="url(#paint11_linear_740_97)"/>
<path d="M186.491 26.4986H174.093C173.777 26.4986 173.566 26.2355 173.637 25.9198L174.163 23.4294C174.234 23.1137 174.55 22.8506 174.866 22.8506H187.263C187.58 22.8506 187.79 23.1137 187.72 23.4294L187.193 25.9198C187.123 26.2355 186.824 26.4986 186.491 26.4986Z" fill="url(#paint12_linear_740_97)"/>
<path d="M189.775 20.2724H177.904C177.588 20.2724 177.377 20.0093 177.447 19.6936L177.974 17.2032C178.044 16.8875 178.36 16.6244 178.676 16.6244C180.678 16.6244 183.593 16.6244 185.595 16.6244C187.299 16.6244 188.826 16.6244 190.53 16.6244C190.565 16.6244 190.775 16.6244 190.898 16.7998C190.986 16.905 191.021 17.0453 190.986 17.2032L190.459 19.6936C190.407 20.0268 190.108 20.2724 189.775 20.2724Z" fill="url(#paint13_linear_740_97)"/>
<path d="M39.7564 17.2909L10.9399 1.41865C6.6903 -0.931497 1.49243 2.13773 1.49243 6.97833V18.5362C1.49243 19.7112 2.45825 20.6758 3.6348 20.6758H9.9214L13.574 12.1522C13.9427 11.3103 14.8032 10.7842 15.7163 10.8543C16.6295 10.9245 17.4197 11.5734 17.648 12.4679L20.7035 24.0608L23.6712 17.7645C24.0575 16.9226 24.9531 16.414 25.9189 16.5368C26.5159 16.6069 27.0427 16.9577 27.4115 17.4312L29.8348 20.6758H33.382C34.541 20.6758 35.542 21.5528 35.6122 22.6928C35.7 23.9555 34.6991 25.0078 33.4523 25.0078H28.7461C28.0612 25.0078 27.4115 24.6921 27.0076 24.1309L26.0418 22.8506L22.0732 31.2691C21.722 32.0232 20.9493 32.5143 20.124 32.5143C20.0537 32.5143 19.9835 32.5143 19.9308 32.4967C19.0177 32.409 18.2626 31.7777 18.0343 30.9007L15.0666 19.6411L13.3457 23.6925C13.012 24.4817 12.2218 25.0078 11.3614 25.0078H3.6348C2.45825 25.0078 1.49243 25.9724 1.49243 27.1475V38.758C1.49243 43.5986 6.6903 46.6678 10.9399 44.3176L39.7564 28.4454C44.1465 26.0075 44.1465 19.7112 39.7564 17.2909Z" fill="url(#paint14_linear_740_97)"/>
<path d="M20.1593 32.5493C20.089 32.5493 20.0188 32.5493 19.9661 32.5318C19.0354 32.4441 18.2628 31.7952 18.0169 30.8832L15.0668 19.7638L13.3634 23.7626C13.0122 24.5694 12.2044 25.113 11.3264 25.113H2.2126C1.00094 25.113 0 24.1134 0 22.8857C0 21.658 1.00094 20.6758 2.2126 20.6758H9.85136L13.5215 12.0995C13.8902 11.2226 14.7683 10.6965 15.7165 10.7666C16.6648 10.8368 17.455 11.5032 17.7008 12.4152L20.7388 23.8503L23.6011 17.7469C23.9348 17.0454 24.6196 16.5543 25.3923 16.4841C26.1649 16.414 26.9376 16.7472 27.3942 17.3611L29.8526 20.6758H33.4349C34.6641 20.6758 35.6475 21.6755 35.6475 22.8857C35.6475 24.1134 34.6466 25.0955 33.4349 25.0955H28.7463C28.0439 25.0955 27.3766 24.7623 26.9727 24.201L26.0596 22.9734L22.1787 31.2515C21.81 32.0407 21.0197 32.5493 20.1593 32.5493Z" fill="url(#paint15_linear_740_97)"/>
<defs>
<linearGradient id="paint0_linear_740_97" x1="63.1926" y1="30.6566" x2="79.7547" y2="14.0738" gradientUnits="userSpaceOnUse">
<stop stop-color="#858585"/>
<stop offset="0.5028" stop-color="#D6D6D6"/>
<stop offset="0.9022" stop-color="#D6D6D6"/>
<stop offset="1" stop-color="white"/>
</linearGradient>
<linearGradient id="paint1_linear_740_97" x1="77.2961" y1="30.9472" x2="89.358" y2="18.8702" gradientUnits="userSpaceOnUse">
<stop stop-color="#858585"/>
<stop offset="0.5028" stop-color="#D6D6D6"/>
<stop offset="0.9022" stop-color="#D6D6D6"/>
<stop offset="1" stop-color="white"/>
</linearGradient>
<linearGradient id="paint2_linear_740_97" x1="83.7539" y1="15.0014" x2="88.0213" y2="10.7287" gradientUnits="userSpaceOnUse">
<stop stop-color="#858585"/>
<stop offset="0.5028" stop-color="#D6D6D6"/>
<stop offset="0.9022" stop-color="#D6D6D6"/>
<stop offset="1" stop-color="white"/>
</linearGradient>
<linearGradient id="paint3_linear_740_97" x1="88.9555" y1="33.1341" x2="103.957" y2="18.1138" gradientUnits="userSpaceOnUse">
<stop stop-color="#858585"/>
<stop offset="0.5028" stop-color="#D6D6D6"/>
<stop offset="0.9022" stop-color="#D6D6D6"/>
<stop offset="1" stop-color="white"/>
</linearGradient>
<linearGradient id="paint4_linear_740_97" x1="135.055" y1="30.9472" x2="147.117" y2="18.8702" gradientUnits="userSpaceOnUse">
<stop stop-color="#858585"/>
<stop offset="0.5028" stop-color="#D6D6D6"/>
<stop offset="0.9022" stop-color="#D6D6D6"/>
<stop offset="1" stop-color="white"/>
</linearGradient>
<linearGradient id="paint5_linear_740_97" x1="141.513" y1="15.0014" x2="145.781" y2="10.7287" gradientUnits="userSpaceOnUse">
<stop stop-color="#858585"/>
<stop offset="0.5028" stop-color="#D6D6D6"/>
<stop offset="0.9022" stop-color="#D6D6D6"/>
<stop offset="1" stop-color="white"/>
</linearGradient>
<linearGradient id="paint6_linear_740_97" x1="141.827" y1="36.73" x2="160.695" y2="17.8384" gradientUnits="userSpaceOnUse">
<stop stop-color="#858585"/>
<stop offset="0.5028" stop-color="#D6D6D6"/>
<stop offset="0.9022" stop-color="#D6D6D6"/>
<stop offset="1" stop-color="white"/>
</linearGradient>
<linearGradient id="paint7_linear_740_97" x1="161.016" y1="29.7647" x2="176.707" y2="14.0544" gradientUnits="userSpaceOnUse">
<stop stop-color="#858585"/>
<stop offset="0.5028" stop-color="#D6D6D6"/>
<stop offset="0.9022" stop-color="#D6D6D6"/>
<stop offset="1" stop-color="white"/>
</linearGradient>
<linearGradient id="paint8_linear_740_97" x1="108.269" y1="34.6458" x2="115.372" y2="27.5341" gradientUnits="userSpaceOnUse">
<stop stop-color="#858585"/>
<stop offset="0.5028" stop-color="#D6D6D6"/>
<stop offset="0.9022" stop-color="#D6D6D6"/>
<stop offset="1" stop-color="white"/>
</linearGradient>
<linearGradient id="paint9_linear_740_97" x1="109.719" y1="28.9831" x2="118.324" y2="20.3677" gradientUnits="userSpaceOnUse">
<stop stop-color="#858585"/>
<stop offset="0.5028" stop-color="#D6D6D6"/>
<stop offset="0.9022" stop-color="#D6D6D6"/>
<stop offset="1" stop-color="white"/>
</linearGradient>
<linearGradient id="paint10_linear_740_97" x1="118.947" y1="28.1675" x2="133.096" y2="14.0002" gradientUnits="userSpaceOnUse">
<stop stop-color="#858585"/>
<stop offset="0.5028" stop-color="#D6D6D6"/>
<stop offset="0.9022" stop-color="#D6D6D6"/>
<stop offset="1" stop-color="white"/>
</linearGradient>
<linearGradient id="paint11_linear_740_97" x1="174.929" y1="34.6457" x2="182.032" y2="27.534" gradientUnits="userSpaceOnUse">
<stop stop-color="#858585"/>
<stop offset="0.5028" stop-color="#D6D6D6"/>
<stop offset="0.9022" stop-color="#D6D6D6"/>
<stop offset="1" stop-color="white"/>
</linearGradient>
<linearGradient id="paint12_linear_740_97" x1="176.38" y1="28.9831" x2="184.984" y2="20.3677" gradientUnits="userSpaceOnUse">
<stop stop-color="#858585"/>
<stop offset="0.5028" stop-color="#D6D6D6"/>
<stop offset="0.9022" stop-color="#D6D6D6"/>
<stop offset="1" stop-color="white"/>
</linearGradient>
<linearGradient id="paint13_linear_740_97" x1="180.062" y1="22.6295" x2="188.401" y2="14.28" gradientUnits="userSpaceOnUse">
<stop stop-color="#858585"/>
<stop offset="0.5028" stop-color="#D6D6D6"/>
<stop offset="0.9022" stop-color="#D6D6D6"/>
<stop offset="1" stop-color="white"/>
</linearGradient>
<linearGradient id="paint14_linear_740_97" x1="-1.36071" y1="38.527" x2="29.9705" y2="7.15658" gradientUnits="userSpaceOnUse">
<stop stop-color="#DD2630"/>
<stop offset="1" stop-color="#D96221"/>
</linearGradient>
<linearGradient id="paint15_linear_740_97" x1="8.45442" y1="32.2561" x2="27.1781" y2="13.509" gradientUnits="userSpaceOnUse">
<stop stop-color="#858585"/>
<stop offset="0.5028" stop-color="#D6D6D6"/>
<stop offset="0.9022" stop-color="#D6D6D6"/>
<stop offset="1" stop-color="white"/>
</linearGradient>
</defs>
</svg>
