<svg width="30" height="30" viewBox="0 0 30 30" fill="none" xmlns="http://www.w3.org/2000/svg">
<g clip-path="url(#clip0_1846_917)">
<path d="M2.57153 12.357H3.61915L3.09534 11.0237L2.57153 12.357Z" fill="#2FABF7"/>
<path d="M15.5714 11.2144C15.4761 11.1667 15.3333 11.1667 15.1904 11.1667H14.238V11.9287H15.1904C15.3333 11.9287 15.4761 11.9287 15.5714 11.881C15.6666 11.8334 15.7142 11.6906 15.7142 11.5477C15.7619 11.3572 15.6666 11.262 15.5714 11.2144Z" fill="#228FE0"/>
<path d="M25.7619 9.78564V10.3571L25.4762 9.78564H23.2381V10.3571L22.9524 9.78564H19.9048C19.381 9.78564 18.9524 9.88088 18.5714 10.0714V9.78564H16.4286V10.0714C16.1905 9.88088 15.9048 9.78564 15.5238 9.78564H7.85714L7.33333 10.9761L6.80952 9.78564H4.38095V10.3571L4.09524 9.78564H2.04762L1.09524 12.0237L0 14.4999H1.09524H2.42857L2.71429 13.738H3.38095L3.66667 14.4999H6.42857V13.9285L6.66667 14.4999H8.04762L8.28572 13.9285V14.4999H14.9048V13.2618H15C15.0952 13.2618 15.0952 13.2618 15.0952 13.4047V14.4523H18.5238V14.1666C18.8095 14.3095 19.2381 14.4523 19.8095 14.4523H21.2381L21.5238 13.6904H22.1905L22.4762 14.4523H25.2381V13.738L25.6667 14.4523H27.9048V9.78564H25.7619ZM9.66667 13.7856H8.85714V11.1666L7.71429 13.7856H7L5.85714 11.1666V13.7856H4.2381L3.90476 13.0714H2.28571L2 13.8333H1.09524L2.52381 10.4523H3.71429L5.04762 13.6428V10.4523H6.33333L7.38095 12.738L8.33333 10.4523H9.66667V13.7856ZM12.9048 11.1666H11.0476V11.7856H12.8571V12.4523H11.0476V13.119H12.9048V13.8333H10.2381V10.4523H12.9048V11.1666ZM16.4762 12.5475C16.5714 12.738 16.6191 12.8809 16.6191 13.1666V13.8333H15.8095V13.4047C15.8095 13.2142 15.8095 12.9285 15.6667 12.738C15.5238 12.5952 15.381 12.5952 15.0952 12.5952H14.2381V13.8333H13.4286V10.4523H15.2381C15.6667 10.4523 15.9524 10.4523 16.1905 10.5952C16.4286 10.738 16.5714 10.9761 16.5714 11.3571C16.5714 11.8809 16.2381 12.1666 16 12.2618C16.2381 12.3095 16.381 12.4523 16.4762 12.5475ZM17.9048 13.7856H17.0952V10.4047H17.9048V13.7856ZM27.2857 13.7856H26.1429L24.6191 11.2618V13.7856H23L22.7143 13.0714H21.0476L20.7619 13.8333H19.8571C19.4762 13.8333 19 13.738 18.7143 13.4523C18.4286 13.1666 18.2857 12.7856 18.2857 12.1666C18.2857 11.6904 18.381 11.2142 18.7143 10.8333C18.9524 10.5475 19.381 10.4523 19.9048 10.4523H20.6667V11.1666H19.9048C19.619 11.1666 19.4762 11.2142 19.2857 11.3571C19.1429 11.4999 19.0476 11.7856 19.0476 12.119C19.0476 12.4999 19.0952 12.738 19.2857 12.9285C19.4286 13.0714 19.6191 13.119 19.8571 13.119H20.1905L21.2857 10.4999H22.4762L23.8095 13.6904V10.4999H25L26.381 12.8333V10.4999H27.1905V13.7856H27.2857Z" fill="#0571C1"/>
<path d="M21.3333 12.357H22.4285L21.9047 11.0237L21.3333 12.357Z" fill="#228FE0"/>
<path d="M13.2381 19.2143V16.5L12 17.8333L13.2381 19.2143Z" fill="#228FE0"/>
<path d="M8.14282 16.8333V17.4523H9.90473V18.119H8.14282V18.8333H10.0952L11 17.8333L10.1428 16.8333H8.14282Z" fill="#2FABF7"/>
<path d="M15.0476 16.8333H14.0476V17.6904H15.0952C15.3809 17.6904 15.5714 17.5475 15.5714 17.2618C15.5238 16.9761 15.3333 16.8333 15.0476 16.8333Z" fill="#228FE0"/>
<path d="M29.762 17.6429V15.5H29.1906H27.762C27.3334 15.5 27.0001 15.5952 26.762 15.7857V15.5H24.5715C24.2382 15.5 23.8096 15.5952 23.6191 15.7857V15.5H19.762V15.7857C19.4763 15.5476 18.9525 15.5 18.7144 15.5H16.143V15.7857C15.9049 15.5476 15.3334 15.5 15.0477 15.5H12.1906L11.5239 16.2143L10.9049 15.5H6.61914V20.1667H10.8096L11.4763 19.4524L12.0953 20.1667H14.6668V19.0714H15.0001C15.3334 19.0714 15.762 19.0714 16.0953 18.9286V20.2143H18.2382V18.9762H18.3334C18.4763 18.9762 18.4763 18.9762 18.4763 19.119V20.2143H24.9525C25.381 20.2143 25.8096 20.119 26.0477 19.9286V20.2143H28.0953C28.5239 20.2143 28.9525 20.1667 29.2382 19.9762C29.7144 19.6905 30.0001 19.1667 30.0001 18.5476C30.0001 18.2143 29.9049 17.881 29.762 17.6429ZM15.0001 18.4048H14.0477V19.5476H12.5239L11.5715 18.4524L10.5715 19.5476H7.42866V16.1667H10.6191L11.5715 17.2619L12.5715 16.1667H15.0953C15.7144 16.1667 16.4287 16.3571 16.4287 17.2619C16.381 18.2143 15.7144 18.4048 15.0001 18.4048ZM19.762 18.2143C19.8572 18.3571 19.9049 18.5476 19.9049 18.8333V19.5H19.0953V19.0714C19.0953 18.881 19.0953 18.5476 18.9525 18.4048C18.8572 18.2619 18.6668 18.2619 18.381 18.2619H17.5239V19.5H16.7144V16.119H18.5239C18.9049 16.119 19.2382 16.119 19.4763 16.2619C19.7144 16.4048 19.9049 16.6429 19.9049 17.0238C19.9049 17.5476 19.5715 17.8333 19.3334 17.9286C19.5715 18.0238 19.7144 18.119 19.762 18.2143ZM23.0477 16.8333H21.1906V17.4524H23.0001V18.119H21.1906V18.7857H23.0477V19.5H20.381V16.119H23.0477V16.8333ZM25.0477 19.5H23.5239V18.7857H25.0477C25.1906 18.7857 25.2858 18.7857 25.381 18.6905C25.4287 18.6429 25.4763 18.5476 25.4763 18.4524C25.4763 18.3571 25.4287 18.2619 25.381 18.2143C25.3334 18.1667 25.2382 18.119 25.0953 18.119C24.3334 18.0714 23.4287 18.119 23.4287 17.0714C23.4287 16.5952 23.7144 16.0714 24.5715 16.0714H26.143V16.881H24.6668C24.5239 16.881 24.4287 16.881 24.3334 16.9286C24.2382 16.9762 24.2382 17.0714 24.2382 17.1667C24.2382 17.3095 24.3334 17.3571 24.4287 17.4048C24.5239 17.4524 24.6191 17.4524 24.7144 17.4524H25.143C25.5715 17.4524 25.8572 17.5476 26.0477 17.7381C26.1906 17.881 26.2858 18.119 26.2858 18.4524C26.2858 19.1667 25.8572 19.5 25.0477 19.5ZM29.143 19.1667C28.9525 19.3571 28.6191 19.5 28.143 19.5H26.6191V18.7857H28.143C28.2858 18.7857 28.381 18.7857 28.4763 18.6905C28.5239 18.6429 28.5715 18.5476 28.5715 18.4524C28.5715 18.3571 28.5239 18.2619 28.4763 18.2143C28.4287 18.1667 28.3334 18.119 28.1906 18.119C27.4287 18.0714 26.5239 18.119 26.5239 17.0714C26.5239 16.5952 26.8096 16.0714 27.6668 16.0714H29.2382V16.881H27.8096C27.6668 16.881 27.5715 16.881 27.4763 16.9286C27.381 16.9762 27.381 17.0714 27.381 17.1667C27.381 17.3095 27.4287 17.3571 27.5715 17.4048C27.6668 17.4524 27.762 17.4524 27.8572 17.4524H28.2858C28.7144 17.4524 29.0001 17.5476 29.1906 17.7381C29.2382 17.7381 29.2382 17.7857 29.2382 17.7857C29.381 17.9762 29.4287 18.2143 29.4287 18.4524C29.4287 18.7381 29.3334 18.9762 29.143 19.1667Z" fill="#0571C1"/>
<path d="M18.9049 16.9285C18.8096 16.8809 18.6668 16.8809 18.5239 16.8809H17.5715V17.6428H18.5239C18.6668 17.6428 18.8096 17.6428 18.9049 17.5951C19.0001 17.5475 19.0477 17.4047 19.0477 17.2618C19.0953 17.0713 19.0001 16.9761 18.9049 16.9285Z" fill="#228FE0"/>
<path d="M15.5714 11.2141C15.4761 11.1665 15.3333 11.1665 15.1904 11.1665H14.238V11.9284H15.1904C15.3333 11.9284 15.4761 11.9284 15.5714 11.8808C15.6666 11.8332 15.7142 11.6903 15.7142 11.5475C15.7618 11.357 15.6666 11.2617 15.5714 11.2141Z" fill="#228FE0"/>
<path d="M21.3333 12.357H22.4285L21.9047 11.0237L21.3333 12.357Z" fill="#228FE0"/>
<path d="M13.2381 19.2143V16.5L12 17.8333L13.2381 19.2143Z" fill="#228FE0"/>
<path d="M15.0476 16.8333H14.0476V17.6904H15.0952C15.3809 17.6904 15.5714 17.5475 15.5714 17.2618C15.5238 16.9761 15.3333 16.8333 15.0476 16.8333Z" fill="#228FE0"/>
<path d="M18.9049 16.9285C18.8096 16.8809 18.6668 16.8809 18.5239 16.8809H17.5715V17.6428H18.5239C18.6668 17.6428 18.8096 17.6428 18.9049 17.5951C19.0001 17.5475 19.0477 17.4047 19.0477 17.2618C19.0953 17.0713 19.0001 16.9761 18.9049 16.9285Z" fill="#228FE0"/>
<path d="M14.7144 19.4048L14.0477 18.6905V19.5H12.4763L11.5239 18.4048L10.4763 19.5H7.33343V16.1667H10.5239L11.5239 17.2619L12.0001 16.6905L10.8096 15.5H6.61914V20.1667H10.8096L11.5239 19.4524L12.143 20.1667H14.7144V19.4048Z" fill="#2FABF7"/>
<path d="M9.7619 14.4523L9.14286 13.7856H8.85714V13.4999L8.14286 12.7856L7.66667 13.7856H7L5.85714 11.1666V13.7856H4.2381L3.90476 13.0714H2.28571L1.95238 13.7856H1.09524L2.52381 10.4523H3.71429L5.04762 13.6428V10.4523H5.76191L5.09524 9.78564H4.38095V10.3571L4.14286 9.78564H2.04762L1.09524 12.0237L0 14.4523H1.09524H2.47619L2.7619 13.738H3.42857L3.7619 14.4523H6.42857V13.8809L6.66667 14.4523H8.04762L8.28571 13.8809V14.4523H9.7619Z" fill="#2FABF7"/>
<path d="M7.57147 12.2619L6.80957 11.5L7.381 12.7381L7.57147 12.2619Z" fill="#2FABF7"/>
<path d="M29.2382 19.9286C29.6668 19.6429 29.9525 19.1667 30.0002 18.6429L29.3335 17.9762C29.3811 18.1191 29.4287 18.2619 29.4287 18.4524C29.4287 18.7381 29.3335 18.9762 29.143 19.1667C28.9525 19.3572 28.6192 19.5 28.143 19.5H26.6192V18.7857H28.143C28.2859 18.7857 28.3811 18.7857 28.4763 18.6905C28.524 18.6429 28.5716 18.5476 28.5716 18.4524C28.5716 18.3572 28.524 18.2619 28.4763 18.2143C28.4287 18.1667 28.3335 18.1191 28.1906 18.1191C27.4287 18.0715 26.524 18.1191 26.524 17.0715C26.524 16.5953 26.8097 16.1667 27.524 16.0715L27.0002 15.5477C26.9049 15.5953 26.8573 15.6429 26.8097 15.6429V15.3572H24.6192C24.2859 15.3572 23.8573 15.4524 23.6668 15.6429V15.3572H19.7621V15.6429C19.4763 15.4048 18.9525 15.3572 18.7144 15.3572H16.143V15.6429C15.9049 15.4048 15.3335 15.3572 15.0478 15.3572H12.1906L11.524 16.0715L10.9049 15.3572H10.3811L11.8097 16.7857L12.524 16.0238H15.0478C15.6668 16.0238 16.3811 16.2143 16.3811 17.1191C16.3811 18.0715 15.7144 18.2619 15.0002 18.2619H14.0478V18.9762L14.7621 19.6905V18.9762H15.0002C15.3335 18.9762 15.7621 18.9762 16.0954 18.8334V20.1191H18.2382V18.881H18.3335C18.4763 18.881 18.4763 18.881 18.4763 19.0238V20.1191H24.9525C25.3811 20.1191 25.8097 20.0238 26.0478 19.8334V20.1191H28.0954C28.4763 20.1667 28.9049 20.1191 29.2382 19.9286ZM19.7621 18.2143C19.8573 18.3572 19.9049 18.5476 19.9049 18.8334V19.5H19.0954V19.0715C19.0954 18.881 19.0954 18.5476 18.9525 18.4048C18.8573 18.2619 18.6668 18.2619 18.3811 18.2619H17.524V19.5H16.7144V16.1191H18.524C18.9049 16.1191 19.2382 16.1191 19.4763 16.2619C19.7144 16.4048 19.9049 16.6429 19.9049 17.0238C19.9049 17.5477 19.5716 17.8334 19.3335 17.9286C19.5716 18.0238 19.7144 18.1191 19.7621 18.2143ZM23.0478 16.8334H21.1906V17.4524H23.0002V18.1191H21.1906V18.7857H23.0478V19.5H20.3811V16.1191H23.0478V16.8334ZM25.0478 19.5H23.524V18.7857H25.0478C25.1906 18.7857 25.2859 18.7857 25.3811 18.6905C25.4287 18.6429 25.4763 18.5476 25.4763 18.4524C25.4763 18.3572 25.4287 18.2619 25.3811 18.2143C25.3335 18.1667 25.2382 18.1191 25.0954 18.1191C24.3335 18.0715 23.4287 18.1191 23.4287 17.0715C23.4287 16.5953 23.7144 16.0715 24.5716 16.0715H26.143V16.881H24.6668C24.524 16.881 24.4287 16.881 24.3335 16.9286C24.2382 16.9762 24.2382 17.0715 24.2382 17.1667C24.2382 17.3096 24.3335 17.3572 24.4287 17.4048C24.524 17.4524 24.6192 17.4524 24.7144 17.4524H25.143C25.5716 17.4524 25.8573 17.5477 26.0478 17.7381C26.1906 17.881 26.2859 18.1191 26.2859 18.4524C26.2859 19.1667 25.8573 19.5 25.0478 19.5Z" fill="#228FE0"/>
<path d="M27.3335 17.1668C27.3335 17.3097 27.3811 17.3573 27.524 17.4049C27.6192 17.4525 27.7144 17.4525 27.8097 17.4525H28.2383C28.524 17.4525 28.7144 17.5002 28.9049 17.5954L28.1906 16.8811H27.7621C27.6192 16.8811 27.524 16.8811 27.4287 16.9287C27.3811 16.9763 27.3335 17.0716 27.3335 17.1668Z" fill="#228FE0"/>
<path d="M25.6667 14.3093L25.762 14.4522H25.8096L25.6667 14.3093Z" fill="#228FE0"/>
<path d="M23.0476 11.6904L23.8571 13.6428V12.5L23.0476 11.6904Z" fill="#228FE0"/>
<path d="M14.9048 13.2618H15.0001C15.0953 13.2618 15.0953 13.2618 15.0953 13.4047V14.4523H18.5239V14.1666C18.8096 14.3094 19.2382 14.4523 19.8096 14.4523H21.2382L21.5239 13.6904H22.1905L22.4763 14.4523H25.2382V13.9761L24.5715 13.3094V13.8333H22.9525L22.7144 13.0713H21.0477L20.762 13.8333H19.8572C19.4763 13.8333 19.0001 13.738 18.7144 13.4523C18.4286 13.1666 18.2858 12.7856 18.2858 12.1666C18.2858 11.6904 18.381 11.2142 18.7144 10.8333C18.9525 10.5475 19.381 10.4523 19.9048 10.4523H20.6667V11.1666H19.9048C19.6191 11.1666 19.4763 11.2142 19.2858 11.3571C19.1429 11.4999 19.0477 11.7856 19.0477 12.119C19.0477 12.4999 19.0953 12.738 19.2858 12.9285C19.4286 13.0713 19.6191 13.119 19.8572 13.119H20.1905L21.2858 10.4999H21.762L21.0953 9.83325H19.8572C19.3334 9.83325 18.9048 9.92849 18.5239 10.119V9.83325H16.4286V10.119C16.1905 9.92849 15.9048 9.83325 15.5239 9.83325H7.85721L7.3334 11.0237L6.80959 9.83325H4.71436L5.38102 10.4999H6.3334L7.14293 12.2618L7.42864 12.5475L8.28578 10.4523H9.61912V13.8333H8.80959V11.2142L8.00007 13.119L9.38102 14.4999H14.8572L14.9048 13.2618ZM17.0953 10.4523H17.9048V13.8333H17.0953V10.4523ZM12.9048 11.1666H11.0477V11.7856H12.8572V12.4523H11.0477V13.119H12.9048V13.8333H10.2382V10.4523H12.9048V11.1666ZM14.2382 13.7856H13.4286V10.4047H15.2382C15.6667 10.4047 15.9525 10.4047 16.1905 10.5475C16.4286 10.6904 16.5715 10.9285 16.5715 11.3094C16.5715 11.8333 16.2382 12.119 16.0001 12.2142C16.1905 12.2618 16.3334 12.4047 16.381 12.4999C16.4763 12.6904 16.5239 12.8333 16.5239 13.119V13.7856H15.7144V13.3571C15.7144 13.1666 15.7144 12.8809 15.5715 12.6904C15.5239 12.5952 15.381 12.5952 15.0953 12.5952H14.2382V13.7856Z" fill="#228FE0"/>
</g>
<defs>
<clipPath id="clip0_1846_917">
<rect width="30" height="30" fill="white"/>
</clipPath>
</defs>
</svg>
