<svg width="37" height="30" viewBox="0 0 37 30" xmlns="http://www.w3.org/2000/svg">
<g opacity="0.75">
<path d="M7.12671 20.7188V16.261H11.5845V20.7188H7.12671Z"/>
<path d="M29.4156 3.98867C29.4121 3.10427 29.0583 2.25731 28.4317 1.6332C27.805 1.00909 26.9567 0.658684 26.0723 0.658691H3.61166C2.72495 0.658691 1.87455 1.01094 1.24755 1.63794C0.620555 2.26493 0.268311 3.11533 0.268311 4.00204V24.0621C0.268311 25.54 0.855385 26.9573 1.90038 28.0023C2.94538 29.0473 4.3627 29.6344 5.84056 29.6344H30.7017C32.1795 29.6344 33.5969 29.0473 34.6419 28.0023C35.6869 26.9573 36.2739 25.54 36.2739 24.0621V10.6887C36.2739 9.80202 35.9217 8.95163 35.2947 8.32463C34.6677 7.69763 33.8173 7.34539 32.9306 7.34539H31.6445V23.4603C31.6445 23.7559 31.5271 24.0394 31.3181 24.2484C31.1091 24.4574 30.8256 24.5748 30.5301 24.5748C30.2345 24.5748 29.951 24.4574 29.742 24.2484C29.533 24.0394 29.4156 23.7559 29.4156 23.4603V3.99089V3.98867ZM4.89773 8.45984C4.89773 8.16427 5.01515 7.8808 5.22415 7.6718C5.43315 7.4628 5.71661 7.34539 6.01218 7.34539H23.8434C24.1389 7.34539 24.4224 7.4628 24.6314 7.6718C24.8404 7.8808 24.9578 8.16427 24.9578 8.45984C24.9578 8.75541 24.8404 9.03887 24.6314 9.24787C24.4224 9.45687 24.1389 9.57429 23.8434 9.57429H6.01218C5.71661 9.57429 5.43315 9.45687 5.22415 9.24787C5.01515 9.03887 4.89773 8.75541 4.89773 8.45984ZM17.1567 14.0321H23.8434C24.1389 14.0321 24.4224 14.1495 24.6314 14.3585C24.8404 14.5675 24.9578 14.851 24.9578 15.1465C24.9578 15.4421 24.8404 15.7256 24.6314 15.9346C24.4224 16.1436 24.1389 16.261 23.8434 16.261H17.1567C16.8611 16.261 16.5776 16.1436 16.3686 15.9346C16.1596 15.7256 16.0422 15.4421 16.0422 15.1465C16.0422 14.851 16.1596 14.5675 16.3686 14.3585C16.5776 14.1495 16.8611 14.0321 17.1567 14.0321ZM16.0422 21.8332C16.0422 21.5377 16.1596 21.2542 16.3686 21.0452C16.5776 20.8362 16.8611 20.7188 17.1567 20.7188H23.8434C24.1389 20.7188 24.4224 20.8362 24.6314 21.0452C24.8404 21.2542 24.9578 21.5377 24.9578 21.8332C24.9578 22.1288 24.8404 22.4123 24.6314 22.6213C24.4224 22.8303 24.1389 22.9477 23.8434 22.9477H17.1567C16.8611 22.9477 16.5776 22.8303 16.3686 22.6213C16.1596 22.4123 16.0422 22.1288 16.0422 21.8332ZM6.01218 14.0321H12.6989C12.9944 14.0321 13.2779 14.1495 13.4869 14.3585C13.6959 14.5675 13.8133 14.851 13.8133 15.1465V21.8332C13.8133 22.1288 13.6959 22.4123 13.4869 22.6213C13.2779 22.8303 12.9944 22.9477 12.6989 22.9477H6.01218C5.71661 22.9477 5.43315 22.8303 5.22415 22.6213C5.01515 22.4123 4.89773 22.1288 4.89773 21.8332V15.1465C4.89773 14.851 5.01515 14.5675 5.22415 14.3585C5.43315 14.1495 5.71661 14.0321 6.01218 14.0321Z"/>
</g>
</svg>
