<svg width="27" height="24" viewBox="0 0 27 24" xmlns="http://www.w3.org/2000/svg">
<path d="M0.875 0.75H2.75V23.25H0.875V0.75ZM25.25 0.75H26.5V23.25H25.25V0.75ZM4 0.75H5.875V15.125H4V0.75ZM7.125 0.75H8.375V15.125H7.125V0.75ZM9.625 0.75H10.875V15.125H9.625V0.75ZM12.75 0.75H14.625V15.125H12.75V0.75ZM16.5 0.75H17.75V15.125H16.5V0.75ZM19 0.75H20.25V15.125H19V0.75ZM21.5 0.75H24V15.125H21.5V0.75ZM4.00625 21.9969V17.4606H5.29188C5.76563 17.4606 6.12563 17.5656 6.37125 17.7769C6.6175 17.9875 6.74063 18.2962 6.74063 18.7031C6.74063 18.9337 6.69 19.1319 6.58813 19.2981C6.48625 19.4644 6.3475 19.5856 6.17063 19.6625C6.37375 19.7206 6.53063 19.8375 6.64125 20.0131C6.75125 20.1887 6.80625 20.4044 6.80625 20.6625C6.80625 21.1025 6.685 21.435 6.44375 21.6594C6.20188 21.8831 5.85125 21.995 5.3925 21.995H4.00625V21.9969ZM4.91813 19.3581H5.28313C5.6425 19.3581 5.8225 19.1719 5.8225 18.8C5.8225 18.5944 5.78125 18.4475 5.69813 18.3575C5.615 18.2675 5.48 18.2238 5.29313 18.2238H4.91813V19.3581ZM4.91813 20.025V21.2369H5.39188C5.55625 21.2369 5.68063 21.1863 5.76563 21.0844C5.85063 20.9825 5.89313 20.8381 5.89313 20.6512C5.89313 20.2437 5.74563 20.035 5.45063 20.025H4.91813ZM10.3156 20.1162C10.3156 20.71 10.175 21.1706 9.89438 21.4988C9.61438 21.8275 9.225 21.9912 8.72625 21.9912C8.22938 21.9912 7.84 21.8288 7.55625 21.5037C7.2725 21.1781 7.12875 20.7237 7.12438 20.1381V19.3813C7.12438 18.7738 7.265 18.3 7.54625 17.9581C7.82813 17.6169 8.21875 17.4463 8.71938 17.4463C9.21188 17.4463 9.6 17.6131 9.88313 17.9494C10.1669 18.2838 10.31 18.755 10.3144 19.3606L10.3156 20.1162ZM9.41938 19.3744C9.41938 18.9762 9.36313 18.6794 9.24938 18.4844C9.13563 18.29 8.95938 18.1931 8.72063 18.1931C8.48375 18.1931 8.30875 18.2862 8.19563 18.4731C8.08188 18.6606 8.02313 18.9456 8.01875 19.3288V20.1156C8.01875 20.5025 8.07625 20.7875 8.19188 20.9706C8.3075 21.1537 8.48563 21.2456 8.72688 21.2456C8.95938 21.2456 9.13313 21.1569 9.24625 20.9756C9.36 20.7975 9.41813 20.5187 9.42 20.1425L9.41938 19.3744ZM24 20.1281C24 20.7219 23.8594 21.1825 23.5788 21.5106C23.2988 21.8394 22.9094 22.0031 22.4106 22.0031C21.9138 22.0031 21.5244 21.8406 21.2406 21.5156C20.9569 21.19 20.8131 20.7356 20.8088 20.15V19.3931C20.8088 18.7856 20.9494 18.3119 21.2306 17.97C21.5125 17.6287 21.9031 17.4581 22.4038 17.4581C22.8963 17.4581 23.2844 17.625 23.5675 17.9612C23.8513 18.2956 23.9944 18.7669 23.9988 19.3725L24 20.1281ZM23.1038 19.3869C23.1038 18.9888 23.0475 18.6919 22.9338 18.4969C22.82 18.3025 22.6438 18.2056 22.405 18.2056C22.1681 18.2056 21.9931 18.2987 21.88 18.4856C21.7663 18.6731 21.7075 18.9581 21.7031 19.3412V20.1281C21.7031 20.515 21.7606 20.8 21.8763 20.9831C21.9919 21.1663 22.17 21.2581 22.4113 21.2581C22.6438 21.2581 22.8175 21.1694 22.9306 20.9881C23.0444 20.81 23.1025 20.5312 23.1044 20.155L23.1038 19.3869ZM11.7906 21.2381H13.3981V21.9981H10.875V17.4625H11.7913L11.7906 21.2381ZM16.3431 20.0356H14.9163V21.2381H16.605V21.9981H14V17.4625H16.5981V18.2256H14.9163V19.2975H16.3431V20.0356ZM20.4156 18.2275H19.2938V22H18.375V18.2275H17.2719V17.4638H20.415L20.4156 18.2275Z"/>
</svg>
