<svg width="28" height="25" viewBox="0 0 28 25" fill="none" xmlns="http://www.w3.org/2000/svg">
<path d="M7.2 20.2C5.88 20.2 4.812 21.28 4.812 22.6C4.812 23.92 5.88 25 7.2 25C8.52 25 9.6 23.92 9.6 22.6C9.6 21.28 8.52 20.2 7.2 20.2ZM0.999999 1C0.447714 1 0 1.44772 0 2V2.4C0 2.95229 0.447715 3.4 1 3.4H2.4L6.72 12.508L5.1 15.448C4.908 15.784 4.8 16.18 4.8 16.6C4.8 17.92 5.88 19 7.2 19H20.6C21.1523 19 21.6 18.5523 21.6 18V17.6C21.6 17.0477 21.1523 16.6 20.6 16.6H7.704C7.536 16.6 7.404 16.468 7.404 16.3L7.44 16.156L8.52 14.2H17.46C18.36 14.2 19.152 13.708 19.56 12.964L23.856 5.176C23.952 5.008 24 4.804 24 4.6C24 3.94 23.46 3.4 22.8 3.4H5.052L4.19408 1.57464C4.02924 1.22391 3.67659 1 3.28906 1H0.999999ZM19.2 20.2C17.88 20.2 16.812 21.28 16.812 22.6C16.812 23.92 17.88 25 19.2 25C20.52 25 21.6 23.92 21.6 22.6C21.6 21.28 20.52 20.2 19.2 20.2Z" fill="white"/>
<ellipse cx="22.5" cy="5.5" rx="5.5" ry="5.5" fill="#ED1E1E"/>
</svg>
