<svg xmlns="http://www.w3.org/2000/svg" width="25" height="50" viewBox="0 0 52 50">
<g filter="url(#filter0_d_2043_143)">
<path d="M47.3432 29.1817L31.8506 13.7005C31.7391 13.5887 31.6066 13.5 31.4607 13.4395C31.3149 13.379 31.1585 13.3479 31.0006 13.3479C30.8427 13.3479 30.6863 13.379 30.5405 13.4395C30.3946 13.5 30.2621 13.5887 30.1506 13.7005L14.658 29.1817C14.2067 29.6331 13.9509 30.2462 13.9509 30.8856C13.9509 32.2133 15.0304 33.2928 16.3581 33.2928H17.9905V44.3395C17.9905 45.0052 18.5284 45.5431 19.1941 45.5431H27.2519C27.9928 45.5431 28.5934 44.9425 28.5934 44.2016V37.1179H32.806V44.2016C32.806 44.9425 33.4066 45.5431 34.1475 45.5431H42.8071C43.4729 45.5431 44.0107 45.0052 44.0107 44.3395V33.2928H45.6431C46.2825 33.2928 46.8956 33.0408 47.3469 32.5856C48.2835 31.6453 48.2835 30.122 47.3432 29.1817Z" />
</g>
<defs>
<filter id="filter0_d_2043_143" x="0.950928" y="0.3479" width="60.0979" height="58.1953" filterUnits="userSpaceOnUse" color-interpolation-filters="sRGB">
<feFlood flood-opacity="0" result="BackgroundImageFix"/>
<feColorMatrix in="SourceAlpha" type="matrix" values="0 0 0 0 0 0 0 0 0 0 0 0 0 0 0 0 0 0 127 0" result="hardAlpha"/>
<feOffset/>
<feGaussianBlur stdDeviation="6.5"/>
<feColorMatrix type="matrix" values="0 0 0 0 1 0 0 0 0 0.79875 0 0 0 0 0.7125 0 0 0 0.4 0"/>
<feBlend mode="normal" in2="BackgroundImageFix" result="effect1_dropShadow_2043_143"/>
<feBlend mode="normal" in="SourceGraphic" in2="effect1_dropShadow_2043_143" result="shape"/>
</filter>
<linearGradient id="paint0_linear_2043_143" x1="13.9501" y1="45.5319" x2="46.0883" y2="11.4944" gradientUnits="userSpaceOnUse">
<stop stop-color="#DD2630"/>
<stop offset="1" stop-color="#D96221"/>
</linearGradient>
</defs>
</svg>