<svg width="61" height="59" viewBox="0 0 61 59"  xmlns="http://www.w3.org/2000/svg">
<g filter="url(#filter0_d_740_73)">
<path d="M46.7338 28.8338L31.2413 13.3526C31.1297 13.2408 30.9972 13.1521 30.8514 13.0916C30.7055 13.0311 30.5491 13 30.3912 13C30.2333 13 30.077 13.0311 29.9311 13.0916C29.7852 13.1521 29.6527 13.2408 29.5412 13.3526L14.0487 28.8338C13.5973 29.2852 13.3416 29.8983 13.3416 30.5377C13.3416 31.8654 14.421 32.9449 15.7487 32.9449H17.3811V43.9916C17.3811 44.6573 17.919 45.1952 18.5847 45.1952H26.6426C27.3834 45.1952 27.984 44.5946 27.984 43.8537V36.77H32.1966V43.8537C32.1966 44.5946 32.7972 45.1952 33.5381 45.1952H42.1977C42.8635 45.1952 43.4013 44.6573 43.4013 43.9916V32.9449H45.0337C45.6731 32.9449 46.2862 32.6929 46.7376 32.2377C47.6741 31.2974 47.6741 29.7741 46.7338 28.8338Z" fill="url(#paint0_linear_740_73)"/>
</g>
<defs>
<filter id="filter0_d_740_73" x="0.341553" y="0" width="60.0979" height="58.1952" filterUnits="userSpaceOnUse" color-interpolation-filters="sRGB">
<feFlood flood-opacity="0" result="BackgroundImageFix"/>
<feColorMatrix in="SourceAlpha" type="matrix" values="0 0 0 0 0 0 0 0 0 0 0 0 0 0 0 0 0 0 127 0" result="hardAlpha"/>
<feOffset/>
<feGaussianBlur stdDeviation="6.5"/>
<feColorMatrix type="matrix" values="0 0 0 0 1 0 0 0 0 0.79875 0 0 0 0 0.7125 0 0 0 0.4 0"/>
<feBlend mode="normal" in2="BackgroundImageFix" result="effect1_dropShadow_740_73"/>
<feBlend mode="normal" in="SourceGraphic" in2="effect1_dropShadow_740_73" result="shape"/>
</filter>
<linearGradient id="paint0_linear_740_73" x1="13.3408" y1="45.184" x2="45.4789" y2="11.1465" gradientUnits="userSpaceOnUse">
<stop stop-color="#DD2630"/>
<stop offset="1" stop-color="#D96221"/>
</linearGradient>
</defs>
</svg>
