<svg width="16" height="17" viewBox="0 0 16 17" fill="none" xmlns="http://www.w3.org/2000/svg">
<path fill-rule="evenodd" clip-rule="evenodd" d="M4.87883 0.872565C5.71855 0.833908 5.98628 0.825317 8.1253 0.825317C10.2643 0.825317 10.5321 0.834624 11.3711 0.872565C12.2101 0.910506 12.7827 1.04437 13.2839 1.23837C13.8086 1.43667 14.2846 1.74664 14.6784 2.14753C15.0793 2.54054 15.3885 3.01588 15.5861 3.54133C15.7808 4.04244 15.914 4.61513 15.9526 5.4527C15.9913 6.29385 15.9999 6.56158 15.9999 8.69988C15.9999 10.8389 15.9906 11.1066 15.9526 11.9464C15.9147 12.7839 15.7808 13.3566 15.5861 13.8577C15.3885 14.3832 15.0787 14.8594 14.6784 15.253C14.2846 15.6538 13.8086 15.9631 13.2839 16.1607C12.7827 16.3554 12.2101 16.4885 11.3725 16.5272C10.5321 16.5659 10.2643 16.5745 8.1253 16.5745C5.98628 16.5745 5.71855 16.5651 4.87883 16.5272C4.04126 16.4893 3.46857 16.3554 2.96746 16.1607C2.44195 15.9631 1.96583 15.6533 1.57223 15.253C1.17161 14.8597 0.861595 14.3838 0.663789 13.8584C0.469789 13.3573 0.336637 12.7846 0.29798 11.9471C0.259323 11.1059 0.250732 10.8382 0.250732 8.69988C0.250732 6.56087 0.260039 6.29313 0.29798 5.45413C0.335921 4.61513 0.469789 4.04244 0.663789 3.54133C0.861887 3.01594 1.17214 2.54005 1.57294 2.14681C1.96599 1.74628 2.44163 1.43627 2.96674 1.23837C3.46785 1.04437 4.04055 0.911222 4.87811 0.872565H4.87883ZM11.3073 2.28999C10.4769 2.25205 10.2278 2.24417 8.1253 2.24417C6.02279 2.24417 5.77367 2.25205 4.94326 2.28999C4.17513 2.32506 3.75849 2.45321 3.48074 2.5613C3.1135 2.70448 2.85077 2.87414 2.57516 3.14975C2.3139 3.40392 2.11284 3.71334 1.98672 4.05532C1.87862 4.33308 1.75048 4.74972 1.7154 5.51784C1.67746 6.34825 1.66959 6.59737 1.66959 8.69988C1.66959 10.8024 1.67746 11.0515 1.7154 11.8819C1.75048 12.6501 1.87862 13.0667 1.98672 13.3444C2.11271 13.6859 2.31387 13.9959 2.57516 14.25C2.8293 14.5113 3.13927 14.7125 3.48074 14.8385C3.75849 14.9466 4.17513 15.0747 4.94326 15.1098C5.77367 15.1477 6.02207 15.1556 8.1253 15.1556C10.2285 15.1556 10.4769 15.1477 11.3073 15.1098C12.0755 15.0747 12.4921 14.9466 12.7699 14.8385C13.1371 14.6953 13.3998 14.5256 13.6754 14.25C13.9367 13.9959 14.1379 13.6859 14.2639 13.3444C14.372 13.0667 14.5001 12.6501 14.5352 11.8819C14.5731 11.0515 14.581 10.8024 14.581 8.69988C14.581 6.59737 14.5731 6.34825 14.5352 5.51784C14.5001 4.74972 14.372 4.33308 14.2639 4.05532C14.1207 3.68808 13.951 3.42536 13.6754 3.14975C13.4213 2.8885 13.1118 2.68745 12.7699 2.5613C12.4921 2.45321 12.0755 2.32506 11.3073 2.28999ZM7.1195 11.1274C7.68122 11.3612 8.30669 11.3928 8.88908 11.2167C9.47148 11.0406 9.97467 10.6678 10.3127 10.1619C10.6508 9.65598 10.8027 9.04842 10.7426 8.44296C10.6824 7.8375 10.4139 7.2717 9.98298 6.8422C9.70826 6.56765 9.37608 6.35742 9.01035 6.22666C8.64463 6.0959 8.25446 6.04784 7.86794 6.08597C7.48142 6.12409 7.10816 6.24744 6.77503 6.44714C6.4419 6.64683 6.15719 6.9179 5.9414 7.24084C5.72561 7.56377 5.5841 7.93053 5.52706 8.31472C5.47003 8.69891 5.49888 9.09096 5.61155 9.46266C5.72422 9.83435 5.9179 10.1764 6.17865 10.4643C6.4394 10.7522 6.76073 10.9786 7.1195 11.1274ZM5.26325 5.83784C5.6391 5.46199 6.0853 5.16385 6.57637 4.96044C7.06744 4.75703 7.59377 4.65234 8.1253 4.65234C8.65683 4.65234 9.18316 4.75703 9.67423 4.96044C10.1653 5.16385 10.6115 5.46199 10.9873 5.83784C11.3632 6.21369 11.6613 6.65988 11.8647 7.15096C12.0682 7.64203 12.1728 8.16835 12.1728 8.69988C12.1728 9.23142 12.0682 9.75774 11.8647 10.2488C11.6613 10.7399 11.3632 11.1861 10.9873 11.5619C10.2283 12.321 9.19878 12.7474 8.1253 12.7474C7.05182 12.7474 6.02231 12.321 5.26325 11.5619C4.50419 10.8029 4.07775 9.77336 4.07775 8.69988C4.07775 7.62641 4.50419 6.5969 5.26325 5.83784ZM13.0705 5.25512C13.1637 5.16726 13.2382 5.06161 13.2898 4.94441C13.3414 4.82722 13.3689 4.70087 13.3708 4.57285C13.3726 4.44482 13.3488 4.31772 13.3007 4.19908C13.2525 4.08043 13.1811 3.97265 13.0905 3.88211C13 3.79157 12.8922 3.72012 12.7736 3.67199C12.6549 3.62385 12.5278 3.60001 12.3998 3.60188C12.2718 3.60374 12.1454 3.63128 12.0282 3.68285C11.911 3.73443 11.8054 3.80899 11.7175 3.90213C11.5467 4.08326 11.4531 4.32386 11.4567 4.57285C11.4604 4.82183 11.5609 5.0596 11.737 5.23568C11.9131 5.41176 12.1508 5.51228 12.3998 5.51591C12.6488 5.51954 12.8894 5.42599 13.0705 5.25512Z" fill="#E6E6E6"/>
</svg>
