<svg width="157" height="43" viewBox="0 0 157 43" fill="none" xmlns="http://www.w3.org/2000/svg">
<path d="M108.977 31.2405H104.74C104.402 31.2405 104.164 30.9355 104.232 30.6135L107.299 16.1081C107.35 15.8709 107.57 15.7014 107.808 15.7014H112.078C112.417 15.7014 112.654 16.0064 112.586 16.3284L109.502 30.8338C109.434 31.071 109.231 31.2405 108.977 31.2405Z" fill="#EFEFEF"/>
<path d="M108.011 12.2784C108.011 11.3294 108.282 10.6177 108.824 10.1432C109.367 9.65179 110.129 9.41455 111.112 9.41455C111.942 9.41455 112.586 9.58401 113.044 9.92292C113.501 10.2618 113.722 10.7363 113.722 11.3633C113.722 12.2783 113.451 12.9901 112.925 13.4815C112.4 13.9729 111.637 14.2271 110.638 14.2271C108.892 14.2101 108.011 13.5662 108.011 12.2784Z" fill="#EFEFEF"/>
<path d="M127.6 16.955C126.787 15.9383 125.668 15.4299 124.245 15.4299C122.771 15.4299 121.584 16.1078 120.703 17.4465H120.602L120.72 16.2772C120.754 15.9722 120.5 15.7011 120.195 15.7011H116.958C116.704 15.7011 116.501 15.8705 116.45 16.1078L111.942 37.3575C111.875 37.6794 112.129 37.9845 112.451 37.9845H116.687C116.941 37.9845 117.145 37.815 117.196 37.5608L117.806 34.5954C118.212 32.7144 118.466 31.0198 118.568 29.5117H118.67C119.466 30.8334 120.534 31.4943 121.839 31.4943C123.093 31.4943 124.245 31.0537 125.295 30.1726C126.346 29.2914 127.193 28.0205 127.837 26.3937C128.481 24.75 128.803 23.0046 128.803 21.1406C128.82 19.3782 128.413 17.9718 127.6 16.955ZM123.025 24.3772C122.771 25.2583 122.449 25.9531 122.042 26.4784C121.635 27.0037 121.212 27.2579 120.771 27.2579C120.381 27.2579 120.093 27.0715 119.873 26.7157C119.67 26.3598 119.551 25.8853 119.551 25.2922C119.551 24.3772 119.67 23.4791 119.907 22.581C120.144 21.6998 120.483 20.9881 120.89 20.4628C121.296 19.9374 121.737 19.6833 122.194 19.6833C122.974 19.6833 123.381 20.3441 123.381 21.6659C123.398 22.5979 123.279 23.496 123.025 24.3772Z" fill="#EFEFEF"/>
<path d="M135.175 31.2402H130.938C130.6 31.2402 130.362 30.9352 130.43 30.6132L134.717 10.3124C134.768 10.0752 134.988 9.90576 135.226 9.90576H139.462C139.801 9.90576 140.038 10.2108 139.97 10.5327L135.683 30.8335C135.632 31.0708 135.429 31.2402 135.175 31.2402Z" fill="#EFEFEF"/>
<path d="M84.2363 31.2404H75.3059C75.0009 31.2404 74.7976 30.9862 74.8654 30.6812L75.3906 28.1732C75.4584 27.8682 75.7634 27.614 76.0685 27.614H84.9988C85.3038 27.614 85.5071 27.8682 85.4394 28.1732L84.9141 30.6812C84.8463 31.0031 84.5413 31.2404 84.2363 31.2404Z" fill="#EFEFEF"/>
<path d="M87.8794 24.9871H75.9158C75.6108 24.9871 75.4074 24.7329 75.4752 24.4279L75.9836 22.0216C76.0514 21.7166 76.3564 21.4624 76.6614 21.4624H88.625C88.93 21.4624 89.1334 21.7166 89.0656 22.0216L88.5572 24.4279C88.4894 24.7498 88.1844 24.9871 87.8794 24.9871Z" fill="#EFEFEF"/>
<path d="M103.181 15.6332C103.063 15.4807 102.859 15.4638 102.826 15.4638C102.436 15.4638 101.453 15.4638 100.148 15.4638L100.64 13.21C100.707 12.888 100.47 12.583 100.131 12.583H97.5386C97.3522 12.583 97.1827 12.6847 97.081 12.8541L95.5898 15.4807C91.8449 15.4807 87.9135 15.4807 87.0323 15.4807C85.1005 15.4807 82.2875 15.4807 80.3557 15.4807C80.0507 15.4807 79.7457 15.7349 79.6779 16.0399L79.1696 18.4462C79.1018 18.7512 79.3051 19.0054 79.6102 19.0054H94.1155C94.0308 19.2596 93.98 19.4968 93.9291 19.7171C93.6411 21.1236 92.7768 25.2413 92.7768 25.2413C92.5565 26.2581 92.4549 27.1223 92.4549 27.8171C92.4549 29.1388 92.8107 30.1047 93.5055 30.6809C94.2003 31.257 95.2339 31.5451 96.5896 31.5451C98.3011 31.5451 99.7584 31.2909 100.945 30.7656C101.131 30.6809 101.25 30.4945 101.25 30.2911V27.3934C101.25 27.0376 100.894 26.7834 100.555 26.902C99.8092 27.1562 99.1992 27.2917 98.7417 27.2917C98.1655 27.2917 97.8775 27.0037 97.8775 26.4275C97.8775 26.1733 97.9452 25.6989 98.0977 24.9872L99.4026 19.0223H102.114C102.419 19.0223 102.724 18.7681 102.792 18.4631L103.3 16.0568C103.3 15.8704 103.266 15.7349 103.181 15.6332Z" fill="#EFEFEF"/>
<path d="M148.561 31.2404H139.631C139.326 31.2404 139.123 30.9862 139.191 30.6812L139.716 28.1732C139.784 27.8682 140.089 27.614 140.394 27.614H149.324C149.629 27.614 149.832 27.8682 149.765 28.1732L149.239 30.6812C149.171 31.0031 148.866 31.2404 148.561 31.2404Z" fill="#EFEFEF"/>
<path d="M152.205 24.9871H140.242C139.936 24.9871 139.733 24.7329 139.801 24.4279L140.309 22.0216C140.377 21.7166 140.682 21.4624 140.987 21.4624H152.951C153.256 21.4624 153.459 21.7166 153.391 22.0216L152.883 24.4279C152.815 24.7498 152.527 24.9871 152.205 24.9871Z" fill="#EFEFEF"/>
<path d="M155.374 18.9888H143.919C143.613 18.9888 143.41 18.7346 143.478 18.4296L143.986 16.0233C144.054 15.7183 144.359 15.4641 144.664 15.4641C146.596 15.4641 149.409 15.4641 151.341 15.4641C152.984 15.4641 154.459 15.4641 156.102 15.4641C156.136 15.4641 156.34 15.4641 156.458 15.6336C156.543 15.7352 156.577 15.8708 156.543 16.0233L156.035 18.4296C155.984 18.7346 155.679 18.9888 155.374 18.9888Z" fill="#EFEFEF"/>
<path d="M69.9513 31.5115H64.3932C64.1729 31.5115 63.9865 31.3759 63.9356 31.1556L60.0212 17.2603H59.9026C59.6315 19.9546 59.3773 21.8864 59.1062 23.0557L57.3946 31.1218C57.3438 31.3421 57.1574 31.5115 56.9202 31.5115H53.0735C52.7685 31.5115 52.5313 31.2234 52.599 30.9354L56.6829 11.6344C56.7338 11.4141 56.9202 11.2446 57.1574 11.2446H62.7156C62.9359 11.2446 63.1223 11.3802 63.1731 11.6005L67.0367 24.8858H67.1553C67.4264 22.6998 67.6806 20.9883 67.9517 19.7344L69.6802 11.6344C69.731 11.4141 69.9174 11.2446 70.1547 11.2446H74.0013C74.3063 11.2446 74.5436 11.5327 74.4758 11.8208L70.4258 31.1387C70.375 31.359 70.1716 31.5115 69.9513 31.5115Z" fill="#EFEFEF"/>
<path d="M38.3646 16.1078L10.557 0.772094C6.45619 -1.48166 1.4403 1.46686 1.4403 6.14384V17.311C1.4403 18.4463 2.3723 19.3783 3.50765 19.3783H9.57417L13.0988 11.1428C13.4547 10.3294 14.285 9.82101 15.1662 9.8888C16.0474 9.95658 16.8099 10.5836 17.0302 11.4478L19.9787 22.6488L22.8425 16.5653C23.2153 15.752 24.0796 15.2605 25.0116 15.3792C25.5877 15.4469 26.0961 15.7858 26.452 16.2434L28.7904 19.3783H32.2134C33.3318 19.3783 34.2977 20.2256 34.3655 21.327C34.4502 22.5471 33.4843 23.5639 32.2812 23.5639H27.7398C27.0789 23.5639 26.4519 23.2588 26.0622 22.7166L25.1302 21.4796L21.3005 29.6134C20.9616 30.3421 20.216 30.8165 19.4195 30.8165C19.3518 30.8165 19.284 30.8166 19.2331 30.7996C18.352 30.7149 17.6233 30.1048 17.403 29.2576L14.5392 18.3785L12.8616 22.2929C12.5396 23.0555 11.7771 23.5639 10.9468 23.5639H3.49073C2.35538 23.5639 1.42334 24.4959 1.42334 25.6312V36.8492C1.42334 41.5261 6.43923 44.4916 10.5401 42.2209L38.3477 26.8852C42.6011 24.5298 42.601 18.4294 38.3646 16.1078Z" fill="url(#paint0_linear_1998_318)"/>
<path d="M19.4535 30.8336C19.3857 30.8336 19.3179 30.8336 19.2671 30.8166C18.369 30.7319 17.6234 30.1049 17.3861 29.2237L14.5393 18.4802L12.8786 22.3438C12.5397 23.1233 11.7602 23.6486 10.9129 23.6486H2.13516C0.948967 23.6486 0 22.6827 0 21.5135C0 20.3443 0.965913 19.3784 2.13516 19.3784H9.50647L13.0481 11.092C13.4039 10.2447 14.2512 9.73634 15.1663 9.80413C16.0813 9.87191 16.8439 10.5158 17.0811 11.397L20.0127 22.4455L22.7748 16.5485C23.0968 15.8706 23.7577 15.3962 24.5033 15.3284C25.2489 15.2606 25.9945 15.5826 26.4351 16.1757L28.8074 19.3784H32.2643C33.4505 19.3784 34.3995 20.3443 34.3995 21.5135C34.3995 22.6827 33.4336 23.6486 32.2643 23.6486H27.7399C27.062 23.6486 26.4181 23.3267 26.0284 22.7844L25.1472 21.5982L21.4022 29.5965C21.0464 30.3591 20.2838 30.8336 19.4535 30.8336Z" fill="#EFEFEF"/>
<defs>
<linearGradient id="paint0_linear_1998_318" x1="-1.31382" y1="36.6156" x2="28.9583" y2="6.34348" gradientUnits="userSpaceOnUse">
<stop stop-color="#DD2630"/>
<stop offset="1" stop-color="#D96221"/>
</linearGradient>
</defs>
</svg>
