<svg width="30" height="30" viewBox="0 0 30 30" fill="none" xmlns="http://www.w3.org/2000/svg">
<g clip-path="url(#clip0_1846_972)">
<path d="M15 21.6667C16.8095 20.0476 17.9524 17.6667 17.9524 15C17.9524 12.3333 16.8095 10 15 8.33333C13.4286 6.90476 11.2857 6 9 6C4.04762 6 0 10.0476 0 15C0 19.9524 4.04762 23.9524 9 23.9524C11.2857 24 13.4286 23.0952 15 21.6667Z" fill="#07A9E2"/>
<path d="M0 15C0 19.9524 4.04762 23.9524 9 23.9524C11.3333 23.9524 13.4286 23.0952 15 21.6191C16.8095 20 17.9524 17.619 17.9524 14.9524C17.9524 12.2857 16.8095 10 15 8.33333C13.4286 6.90476 11.2857 6 9 6" fill="#009DDD"/>
<path d="M15 8.33333C13.4286 6.90476 11.2857 6 9.00001 6C8.85715 6 8.7143 6 8.57144 6C5.76192 8.04762 3.95239 11.3333 3.95239 15C3.95239 18.6667 5.76192 21.9524 8.52382 23.9524C8.66668 23.9524 8.80953 23.9524 8.95239 23.9524C11.2857 23.9524 13.381 23.0952 14.9524 21.6191C16.7619 20 17.9048 17.619 17.9048 14.9524C17.9048 12.2857 16.8095 10 15 8.33333Z" fill="#0284CC"/>
<path d="M21.0476 6C18.7142 6 16.619 6.85714 14.9999 8.33333C14.6666 8.61905 14.3809 8.95238 14.0952 9.28571H15.9047C16.1428 9.57143 16.3809 9.90476 16.5714 10.2381H13.3809C13.1904 10.5714 12.9999 10.8571 12.8571 11.1905H17.0952C17.238 11.5238 17.3809 11.8095 17.4761 12.1429H12.5238C12.4285 12.4762 12.3333 12.7619 12.238 13.0952H17.7618C17.9047 13.7143 17.9523 14.3333 17.9523 15C17.9523 16 17.8095 16.9524 17.4761 17.8571H12.5238C12.619 18.1905 12.7618 18.4762 12.9047 18.8095H17.1428C16.9999 19.1429 16.8095 19.4762 16.619 19.7619H13.4285C13.619 20.0952 13.8571 20.4286 14.0952 20.7143H15.9047C15.619 21.0476 15.3333 21.381 14.9999 21.6667C16.619 23.0952 18.7142 24 21.0476 24C25.9999 24 29.9999 20 29.9999 15.0476C29.9999 10.0476 25.9999 6 21.0476 6Z" fill="#FF2957"/>
<path d="M21.0476 6C18.7142 6 16.619 6.85714 14.9999 8.33333C14.6666 8.61905 14.3809 8.95238 14.0952 9.28571H15.9047C16.1428 9.57143 16.3809 9.90476 16.5714 10.2381H13.3809C13.1904 10.5714 12.9999 10.8571 12.8571 11.1905H17.0952C17.238 11.5238 17.3809 11.8095 17.4761 12.1429H12.5238C12.4285 12.4762 12.3333 12.7619 12.238 13.0952H17.7618C17.9047 13.7143 17.9523 14.3333 17.9523 15C17.9523 16 17.8095 16.9524 17.4761 17.8571H12.5238C12.619 18.1905 12.7618 18.4762 12.9047 18.8095H17.1428C16.9999 19.1429 16.8095 19.4762 16.619 19.7619H13.4285C13.619 20.0952 13.8571 20.4286 14.0952 20.7143H15.9047C15.619 21.0476 15.3333 21.381 14.9999 21.6667C16.619 23.0952 18.7142 24 21.0476 24C25.9999 24 29.9999 20 29.9999 15.0476" fill="#ED1C2E"/>
<path d="M15 21.6668C16.8095 20.0478 17.9524 17.6668 17.9524 15.0002C17.9524 12.3335 16.8095 10.0002 15 8.3335V21.6668Z" fill="#0466B5"/>
<path d="M26.9048 16.9525C26.9048 16.8096 27.0476 16.6667 27.1905 16.6667C27.3334 16.6667 27.4762 16.8096 27.4762 16.9525C27.4762 17.0953 27.3334 17.2382 27.1905 17.2382C27.0476 17.2382 26.9048 17.0953 26.9048 16.9525ZM27.1905 17.1906C27.3334 17.1906 27.381 17.0953 27.381 16.9525C27.381 16.8096 27.2857 16.762 27.1905 16.762C27.0476 16.762 26.9524 16.8572 26.9524 16.9525C26.9524 17.0477 27.0953 17.1906 27.1905 17.1906ZM27.1905 17.0477H27.1429V16.8096H27.2381C27.2857 16.8096 27.2857 16.8096 27.2857 16.8096L27.3334 16.8572C27.3334 16.9048 27.3334 16.9048 27.2857 16.9048L27.3334 17.0001H27.2857L27.2381 16.9048H27.1905V17.0477ZM27.1905 16.9048C27.2381 16.9048 27.2381 16.9048 27.2381 16.9048C27.2381 16.9048 27.2381 16.9048 27.2381 16.8572H27.1905V16.9048Z" fill="#E6E6E6"/>
<path d="M14.9999 8.33333C14.6666 8.61904 14.3809 8.95238 14.0952 9.28571H15.9047C16.1428 9.57142 16.3809 9.90476 16.5714 10.2381H13.3809C13.1904 10.5714 12.9999 10.8571 12.8571 11.1905H17.0952C17.238 11.5238 17.3809 11.8095 17.4761 12.1429H12.5238C12.4285 12.4762 12.3333 12.7619 12.238 13.0952H17.7618C17.9047 13.7143 17.9523 14.3333 17.9523 15C17.9523 16 17.8095 16.9524 17.4761 17.8571H12.5238C12.619 18.1905 12.7618 18.4762 12.9047 18.8095H17.1428C16.9999 19.1429 16.8095 19.4762 16.619 19.7619H13.4285C13.619 20.0952 13.8571 20.4286 14.0952 20.7143H15.9047C15.619 21.0476 15.3333 21.3809 14.9999 21.6667C16.619 23.0952 18.7142 24 21.0476 24C21.1904 24 21.3333 24 21.4761 24C24.238 22 26.0476 18.7143 26.0476 15.0476C26.0476 11.3809 24.238 8.09523 21.4761 6.09523C21.3333 6.09523 21.1904 6.09523 21.0476 6.09523C18.7142 6 16.619 6.90476 14.9999 8.33333Z" fill="#D1094B"/>
<path d="M7.85714 17.2382H6.71428L7.38095 13.762L5.85714 17.2382H4.85714L4.66667 13.762L4 17.2382H3L3.85714 12.6667H5.61905L5.71428 15.5239L6.95238 12.6667H8.7619L7.85714 17.2382Z" fill="#E6E6E6"/>
<path d="M6.76197 15.2382L7.42864 13.762L6.90483 16.5239C6.95245 16.762 7.00007 17.0477 7.09531 17.2858H7.85721L8.71435 12.7144H7.04769C6.85721 13.4286 6.71436 14.2382 6.71436 15.0477C6.76197 15.0953 6.76197 15.1429 6.76197 15.2382Z" fill="#E6E6E6"/>
<path d="M20.3334 17.1905C20.0001 17.2858 19.8096 17.3334 19.5239 17.3334C18.9525 17.3334 18.6667 17.0477 18.6667 16.5239C18.6667 16.4286 18.6667 16.3334 18.7144 16.1905L18.762 15.8096L18.8096 15.5239L19.3334 12.7144H20.4287L20.2858 13.5715H20.8572L20.7144 14.4286H20.1429L19.8572 15.9524C19.8572 16.0001 19.8096 16.0953 19.8096 16.0953C19.8096 16.2858 19.9525 16.381 20.1906 16.381C20.3334 16.381 20.4287 16.381 20.4763 16.3334L20.3334 17.1905Z" fill="#E6E6E6"/>
<path d="M23.6191 13.5716C23.5239 13.5239 23.5239 13.5239 23.4763 13.5239C23.4286 13.5239 23.381 13.5239 23.381 13.4763C23.3334 13.4763 23.3334 13.4763 23.2382 13.4763C22.8572 13.4763 22.6191 13.6192 22.2858 14.0954L22.381 13.5239H21.381L20.7144 17.2382H21.8572C22.2382 14.9525 22.4286 14.5716 22.9525 14.5716C23.0001 14.5716 23.0477 14.5716 23.0953 14.5716L23.2382 14.6192L23.6191 13.5716Z" fill="#E6E6E6"/>
<path d="M15.9049 14.7144C15.9049 15.1906 16.1906 15.5239 16.762 15.7144C17.2382 15.9049 17.2858 15.9525 17.2858 16.143C17.2858 16.3811 17.0954 16.4763 16.6192 16.4763C16.2858 16.4763 15.9525 16.4287 15.6192 16.3335L15.4763 17.1906H15.5239L15.7144 17.2382C15.762 17.2382 15.9049 17.2382 16.0001 17.2382C16.2858 17.2858 16.4763 17.2858 16.6192 17.2858C17.8097 17.2858 18.3811 16.9049 18.3811 16.0477C18.3811 15.5239 18.143 15.2382 17.5716 15.0001C17.0954 14.8096 17.0477 14.762 17.0477 14.6192C17.0477 14.4287 17.2382 14.3335 17.6192 14.3335C17.8097 14.3335 18.143 14.3335 18.4287 14.3811L18.5716 13.5239C18.2858 13.4763 17.8573 13.4763 17.5716 13.4763C16.3335 13.4763 15.9049 14.0477 15.9049 14.7144Z" fill="#E6E6E6"/>
<path d="M11.4763 17.238H10.5716V16.857C10.2859 17.1428 9.90491 17.2856 9.3811 17.2856C8.76206 17.2856 8.3811 16.857 8.3811 16.2856C8.3811 15.3808 9.09539 14.857 10.3335 14.857C10.4763 14.857 10.6192 14.857 10.8097 14.857C10.8573 14.7142 10.8573 14.6666 10.8573 14.6189C10.8573 14.3808 10.6668 14.2856 10.143 14.2856C9.80967 14.2856 9.47634 14.3332 9.23825 14.3808L9.09539 14.4285H9.00015L9.14301 13.6189C9.71444 13.4761 10.0478 13.4285 10.4763 13.4285C11.4287 13.4285 11.9525 13.8094 11.9525 14.5237C11.9525 14.7142 11.9525 14.857 11.8573 15.2856L11.6192 16.6189L11.5716 16.857L11.524 17.0475V17.1904L11.4763 17.238ZM10.6668 15.5713C10.524 15.5713 10.4763 15.5713 10.4287 15.5713C9.80967 15.5713 9.47634 15.7618 9.47634 16.1428C9.47634 16.3808 9.6192 16.5237 9.85729 16.5237C10.3335 16.5237 10.6668 16.1428 10.6668 15.5713Z" fill="#E6E6E6"/>
<path d="M15.1428 17.1428C14.7619 17.238 14.3809 17.2856 14 17.2856C12.7619 17.2856 12.0952 16.7142 12.0952 15.6189C12.0952 14.3332 12.9047 13.4285 14.0476 13.4285C14.9524 13.4285 15.5238 13.9523 15.5238 14.7618C15.5238 15.0475 15.4762 15.2856 15.3809 15.6666H13.1428C13.1428 15.7142 13.1428 15.7618 13.1428 15.8094C13.1428 16.238 13.4762 16.4761 14.0952 16.4761C14.5238 16.4761 14.8571 16.4285 15.2381 16.238L15.1428 17.1428ZM14.5714 14.9523C14.5714 14.9047 14.5714 14.8094 14.5714 14.7618C14.5714 14.4761 14.3809 14.2856 14.0476 14.2856C13.7143 14.2856 13.4285 14.5237 13.3333 14.9523H14.5714Z" fill="#E6E6E6"/>
<path d="M27.0952 15.5716C26.9047 16.8097 26.0476 17.3335 24.9047 17.3335C23.6666 17.3335 23.1428 16.5716 23.1428 15.6192C23.1428 14.3335 24 13.4287 25.3333 13.4287C26.4762 13.4287 27.0952 14.1906 27.0952 15.0954C27.0952 15.3335 27.0952 15.3335 27.0952 15.5716ZM25.9047 15.0954C25.9047 14.7144 25.7619 14.3811 25.2857 14.3811C24.7142 14.3811 24.3809 15.0478 24.3809 15.6668C24.3809 16.143 24.619 16.4763 25 16.4763C25.2381 16.4763 25.7619 16.143 25.8571 15.5716C25.9047 15.3811 25.9047 15.2382 25.9047 15.0954Z" fill="#E6E6E6"/>
<path d="M23.1915 16.0476C23.2391 15.7143 23.2867 15.3334 23.2867 15C23.2867 14.9524 23.2867 14.9048 23.2867 14.9048C23.2391 15.1429 23.1915 15.381 23.1915 15.6667C23.1439 15.7619 23.1439 15.9048 23.1915 16.0476Z" fill="#E6E6E6"/>
</g>
<defs>
<clipPath id="clip0_1846_972">
<rect width="30" height="30" fill="white"/>
</clipPath>
</defs>
</svg>
