<svg width="34" height="33" viewBox="0 0 34 33" xmlns="http://www.w3.org/2000/svg">
<path opacity="0.75" fill-rule="evenodd" clip-rule="evenodd" d="M11.4527 8.71031C11.4527 5.33109 14.1654 2.60983 17.4893 2.60983C20.8133 2.60983 23.5259 5.33109 23.5259 8.71031V11.4635H11.4527V8.71031ZM9.0381 11.4635V8.71031C9.0381 4.01755 12.8119 0.19519 17.4893 0.19519C22.1668 0.19519 25.9406 4.01755 25.9406 8.71031V11.4635H33.4523C33.7701 11.4635 34.0182 11.7381 33.9862 12.0542L32.2639 29.0617C32.0571 31.1044 30.3374 32.6587 28.2843 32.6587H6.58288C4.5298 32.6587 2.81009 31.1044 2.60324 29.0617L0.880958 12.0542C0.848947 11.7381 1.09709 11.4635 1.41481 11.4635H9.0381ZM23.2677 20.5664L15.435 16.2425C14.2814 15.6059 12.8676 16.4402 12.8676 17.7583V20.9021C12.8676 21.0567 12.929 21.205 13.0383 21.3144C13.1477 21.4237 13.296 21.4851 13.4506 21.4851H15.1606L16.1544 19.1662C16.2027 19.0535 16.285 18.9587 16.3898 18.8951C16.4946 18.8314 16.6166 18.802 16.7389 18.8111C16.8612 18.8202 16.9776 18.8673 17.0719 18.9457C17.1661 19.0242 17.2335 19.1301 17.2646 19.2487L18.0942 22.4031L18.9027 20.6872C18.9559 20.5744 19.0435 20.4814 19.1529 20.4216C19.2623 20.3617 19.3879 20.3382 19.5116 20.3542C19.5921 20.3659 19.6694 20.3937 19.739 20.4359C19.8087 20.478 19.8691 20.5337 19.9168 20.5996L20.5772 21.4847H21.542C21.8547 21.4847 22.1282 21.7211 22.1497 22.0338C22.1551 22.1141 22.144 22.1947 22.117 22.2706C22.09 22.3464 22.0477 22.4159 21.9927 22.4748C21.9378 22.5337 21.8713 22.5806 21.7975 22.6128C21.7237 22.6449 21.6441 22.6616 21.5635 22.6617H20.2822C20.1906 22.6618 20.1002 22.6404 20.0184 22.5994C19.9365 22.5583 19.8653 22.4987 19.8105 22.4253L19.5499 22.076L18.469 24.3694C18.4217 24.4707 18.3465 24.5564 18.2522 24.6165C18.1579 24.6766 18.0485 24.7085 17.9367 24.7086C17.9188 24.7086 17.9008 24.7079 17.8828 24.7063C17.7625 24.6953 17.6484 24.6474 17.5562 24.5694C17.464 24.4913 17.3981 24.3867 17.3674 24.2698L16.5612 21.2045L16.0895 22.3054C16.0444 22.4114 15.9691 22.5018 15.8729 22.5653C15.7767 22.6287 15.6639 22.6624 15.5487 22.6621H13.4506C13.296 22.6621 13.1477 22.7236 13.0383 22.8329C12.929 22.9422 12.8676 23.0905 12.8676 23.2452V26.403C12.8676 27.7208 14.2814 28.5555 15.435 27.9185L23.2677 23.5961C24.4608 22.938 24.4608 21.2233 23.2677 20.5664Z"/>
</svg>
