<svg width="30" height="30" viewBox="0 0 30 30" fill="none" xmlns="http://www.w3.org/2000/svg">
<g clip-path="url(#clip0_1846_864)">
<path d="M30 15C30 19.9524 26 24 21 24C16.0476 24 12 19.9524 12 15C12 10.0476 16 6 20.9524 6C26 6 30 10.0476 30 15Z" fill="#FFB600"/>
<path d="M21 6C25.9524 6 30 10.0476 30 15C30 19.9524 26 24 21 24C16.0476 24 12 19.9524 12 15" fill="#F7981D"/>
<path d="M21 6C25.9524 6 30 10.0476 30 15C30 19.9524 26 24 21 24" fill="#FF8500"/>
<path d="M8.90476 6C4 6.04762 0 10.0476 0 15C0 19.9524 4 24 9 24C11.3333 24 13.4286 23.0952 15.0476 21.6667C15.381 21.381 15.6667 21.0476 15.9524 20.7143H14.0952C13.8571 20.4286 13.619 20.0952 13.4286 19.8095H16.619C16.8095 19.5238 17 19.1905 17.1429 18.8571H12.9048C12.7619 18.5714 12.619 18.2381 12.5238 17.9048H17.4762C17.7619 17 17.9524 16.0476 17.9524 15.0476C17.9524 14.381 17.8571 13.7619 17.7619 13.1429H12.2381C12.2857 12.8095 12.381 12.5238 12.4762 12.1905H17.4286C17.3333 11.8571 17.1905 11.5238 17.0476 11.2381H12.8571C13 10.9048 13.1905 10.619 13.381 10.2857H16.5714C16.381 9.95238 16.1429 9.61905 15.8571 9.33333H14.0952C14.381 9 14.6667 8.71429 15 8.42857C13.4286 6.95238 11.2857 6.09524 8.95238 6.09524C8.95238 6 8.95238 6 8.90476 6Z" fill="#FF5050"/>
<path d="M0 15C0 19.9524 4 24 9 24C11.3333 24 13.4286 23.0952 15.0476 21.6666C15.381 21.3809 15.6667 21.0476 15.9524 20.7143H14.0952C13.8571 20.4285 13.619 20.0952 13.4286 19.8095H16.619C16.8095 19.5238 17 19.1904 17.1429 18.8571H12.9048C12.7619 18.5714 12.619 18.2381 12.5238 17.9047H17.4762C17.7619 17 17.9524 16.0476 17.9524 15.0476C17.9524 14.3809 17.8571 13.7619 17.7619 13.1428H12.2381C12.2857 12.8095 12.381 12.5238 12.4762 12.1905H17.4286C17.3333 11.8571 17.1905 11.5238 17.0476 11.2381H12.8571C13 10.9047 13.1905 10.619 13.381 10.2857H16.5714C16.381 9.95236 16.1429 9.61902 15.8571 9.33331H14.0952C14.381 8.99998 14.6667 8.71426 15 8.42855C13.4286 6.95236 11.2857 6.09521 8.95238 6.09521H8.90476" fill="#E52836"/>
<path d="M9.00002 24C11.3334 24 13.4286 23.0952 15.0476 21.6666C15.381 21.3809 15.6667 21.0476 15.9524 20.7143H14.0953C13.8572 20.4285 13.6191 20.0952 13.4286 19.8095H16.6191C16.8095 19.5238 17 19.1904 17.1429 18.8571H12.9048C12.7619 18.5714 12.6191 18.2381 12.5238 17.9047H17.4762C17.7619 17 17.9524 16.0476 17.9524 15.0476C17.9524 14.3809 17.8572 13.7619 17.7619 13.1428H12.2381C12.2857 12.8095 12.381 12.5238 12.4762 12.1905H17.4286C17.3334 11.8571 17.1905 11.5238 17.0476 11.2381H12.8572C13 10.9047 13.1905 10.619 13.381 10.2857H16.5715C16.381 9.95236 16.1429 9.61902 15.8572 9.33331H14.0953C14.381 8.99998 14.6667 8.71426 15 8.42855C13.4286 6.95236 11.2857 6.09521 8.9524 6.09521H8.90479" fill="#CB2026"/>
<path d="M12.1905 17.2857L12.3334 16.4762C12.2858 16.4762 12.1905 16.5238 12.0953 16.5238C11.762 16.5238 11.7143 16.3333 11.762 16.2381L12.0477 14.5714H12.5715L12.7143 13.6666H12.2381L12.3334 13.0952H11.381C11.381 13.0952 10.8096 16.2381 10.8096 16.619C10.8096 17.1905 11.1429 17.4285 11.5715 17.4285C11.8572 17.4285 12.0953 17.3333 12.1905 17.2857Z" fill="#E6E6E6"/>
<path d="M12.5239 15.7619C12.5239 17.0953 13.4287 17.4286 14.1906 17.4286C14.9049 17.4286 15.1906 17.2857 15.1906 17.2857L15.3811 16.381C15.3811 16.381 14.8573 16.6191 14.3811 16.6191C13.3335 16.6191 13.5239 15.8572 13.5239 15.8572H15.4763C15.4763 15.8572 15.6192 15.2381 15.6192 15C15.6192 14.381 15.2858 13.6191 14.2382 13.6191C13.2382 13.5238 12.5239 14.5714 12.5239 15.7619ZM14.1906 14.381C14.7144 14.381 14.6192 15 14.6192 15.0476H13.5715C13.5715 15 13.6668 14.381 14.1906 14.381Z" fill="#E6E6E6"/>
<path d="M20.2382 17.2858L20.4287 16.2382C20.4287 16.2382 19.9525 16.4763 19.6191 16.4763C18.9525 16.4763 18.6668 15.9525 18.6668 15.381C18.6668 14.2382 19.2382 13.6191 19.9049 13.6191C20.381 13.6191 20.762 13.9048 20.762 13.9048L20.9049 12.9048C20.9049 12.9048 20.3334 12.6667 19.8096 12.6667C18.7144 12.6667 17.6191 13.6191 17.6191 15.4287C17.6191 16.6191 18.1906 17.4287 19.3334 17.4287C19.7144 17.4287 20.2382 17.2858 20.2382 17.2858Z" fill="#E6E6E6"/>
<path d="M6.95235 13.5239C6.28568 13.5239 5.80949 13.7144 5.80949 13.7144L5.66663 14.5239C5.66663 14.5239 6.0952 14.3334 6.71425 14.3334C7.04758 14.3334 7.3333 14.3811 7.3333 14.6668C7.3333 14.8573 7.28568 14.9049 7.28568 14.9049C7.28568 14.9049 6.99996 14.9049 6.85711 14.9049C6.04758 14.9049 5.14282 15.2382 5.14282 16.3334C5.14282 17.1906 5.71425 17.3811 6.04758 17.3811C6.71425 17.3811 6.99996 16.9525 7.04758 16.9525L6.99996 17.3334H7.85711L8.23806 14.7144C8.23806 13.5715 7.28568 13.5239 6.95235 13.5239ZM7.14282 15.6668C7.14282 15.8096 7.04758 16.5715 6.47616 16.5715C6.19044 16.5715 6.0952 16.3334 6.0952 16.1906C6.0952 15.9525 6.23806 15.6192 6.95235 15.6192C7.0952 15.6668 7.14282 15.6668 7.14282 15.6668Z" fill="#E6E6E6"/>
<path d="M9.14285 17.3811C9.38094 17.3811 10.5714 17.4287 10.5714 16.143C10.5714 14.9525 9.42856 15.1906 9.42856 14.7144C9.42856 14.4763 9.61904 14.3811 9.95237 14.3811C10.0952 14.3811 10.619 14.4287 10.619 14.4287L10.7619 13.5716C10.7619 13.5716 10.4286 13.4763 9.85713 13.4763C9.14285 13.4763 8.42856 13.762 8.42856 14.7144C8.42856 15.8097 9.61904 15.7144 9.61904 16.143C9.61904 16.4287 9.2857 16.4763 9.04761 16.4763C8.61904 16.4763 8.19047 16.3335 8.19047 16.3335L8.04761 17.1906C8.09523 17.2858 8.33332 17.3811 9.14285 17.3811Z" fill="#E6E6E6"/>
<path d="M28.143 12.762L27.9525 14.0477C27.9525 14.0477 27.5716 13.5715 27.0478 13.5715C26.1906 13.5715 25.4287 14.6191 25.4287 15.8572C25.4287 16.6191 25.8097 17.4286 26.6192 17.4286C27.1906 17.4286 27.5239 17.0477 27.5239 17.0477L27.4763 17.381H28.4287L29.143 12.8096L28.143 12.762ZM27.7144 15.2858C27.7144 15.8096 27.4763 16.4762 26.9525 16.4762C26.6192 16.4762 26.4287 16.1905 26.4287 15.7143C26.4287 14.9524 26.762 14.4762 27.1906 14.4762C27.5239 14.4762 27.7144 14.7143 27.7144 15.2858Z" fill="#E6E6E6"/>
<path d="M1.76194 17.3334L2.33337 13.9048L2.42861 17.3334H3.09527L4.33337 13.9048L3.80956 17.3334H4.80956L5.57146 12.762H4.00004L3.04765 15.5715L3.00004 12.762H1.61908L0.857178 17.3334H1.76194Z" fill="#E6E6E6"/>
<path d="M16.5239 17.3334C16.8097 15.762 16.8573 14.4763 17.5239 14.7144C17.6192 14.0953 17.762 13.8572 17.8573 13.6191C17.8573 13.6191 17.8096 13.6191 17.6668 13.6191C17.2382 13.6191 16.9049 14.1906 16.9049 14.1906L17.0001 13.6668H16.0954L15.4763 17.381H16.5239V17.3334Z" fill="#E6E6E6"/>
<path d="M22.4287 13.5239C21.762 13.5239 21.2858 13.7144 21.2858 13.7144L21.143 14.5239C21.143 14.5239 21.5715 14.3334 22.1906 14.3334C22.5239 14.3334 22.8096 14.3811 22.8096 14.6668C22.8096 14.8573 22.762 14.9049 22.762 14.9049C22.762 14.9049 22.4763 14.9049 22.3334 14.9049C21.5239 14.9049 20.6191 15.2382 20.6191 16.3334C20.6191 17.1906 21.1906 17.3811 21.5239 17.3811C22.1906 17.3811 22.4763 16.9525 22.5239 16.9525L22.4763 17.3334H23.3334L23.7144 14.7144C23.762 13.5715 22.762 13.5239 22.4287 13.5239ZM22.6668 15.6668C22.6668 15.8096 22.5715 16.5715 22.0001 16.5715C21.7144 16.5715 21.6191 16.3334 21.6191 16.1906C21.6191 15.9525 21.762 15.6192 22.4763 15.6192C22.6191 15.6668 22.6191 15.6668 22.6668 15.6668Z" fill="#E6E6E6"/>
<path d="M24.5239 17.3334C24.8096 15.762 24.8573 14.4763 25.5239 14.7144C25.6192 14.0953 25.762 13.8572 25.8573 13.6191C25.8573 13.6191 25.8096 13.6191 25.6668 13.6191C25.2382 13.6191 24.9049 14.1906 24.9049 14.1906L25.0001 13.6668H24.0954L23.4763 17.381H24.5239V17.3334Z" fill="#E6E6E6"/>
<path d="M10.7144 16.619C10.7144 17.1905 11.0477 17.4285 11.4763 17.4285C11.8096 17.4285 12.0953 17.3333 12.1905 17.2857L12.3334 16.4762C12.2858 16.4762 12.1905 16.5238 12.0953 16.5238C11.762 16.5238 11.7144 16.3333 11.762 16.2381L12.0477 14.5714H12.5715L12.7144 13.6666H12.2382L12.3334 13.0952" fill="#E6E6E6"/>
<path d="M13 15.7619C13 17.0953 13.4286 17.4286 14.1905 17.4286C14.9048 17.4286 15.1905 17.2857 15.1905 17.2857L15.3809 16.381C15.3809 16.381 14.8571 16.6191 14.381 16.6191C13.3333 16.6191 13.5238 15.8572 13.5238 15.8572H15.4762C15.4762 15.8572 15.619 15.2381 15.619 15C15.619 14.381 15.2857 13.6191 14.2381 13.6191C13.2381 13.5238 13 14.5714 13 15.7619ZM14.1905 14.381C14.7143 14.381 14.8095 15 14.8095 15.0476H13.5714C13.5714 15 13.6667 14.381 14.1905 14.381Z" fill="#E6E6E6"/>
<path d="M20.2381 17.2858L20.4285 16.2382C20.4285 16.2382 19.9524 16.4763 19.619 16.4763C18.9524 16.4763 18.6666 15.9525 18.6666 15.381C18.6666 14.2382 19.2381 13.6191 19.9047 13.6191C20.3809 13.6191 20.7619 13.9048 20.7619 13.9048L20.9047 12.9048C20.9047 12.9048 20.3333 12.6667 19.8095 12.6667C18.7143 12.6667 18.0952 13.6191 18.0952 15.4287C18.0952 16.6191 18.1905 17.4287 19.3333 17.4287C19.7143 17.4287 20.2381 17.2858 20.2381 17.2858Z" fill="#E6E6E6"/>
<path d="M5.66663 14.5715C5.66663 14.5715 6.0952 14.381 6.71425 14.381C7.04758 14.381 7.3333 14.4287 7.3333 14.7144C7.3333 14.9049 7.28568 14.9525 7.28568 14.9525C7.28568 14.9525 6.99996 14.9525 6.85711 14.9525C6.04758 14.9525 5.14282 15.2858 5.14282 16.381C5.14282 17.2382 5.71425 17.4287 6.04758 17.4287C6.71425 17.4287 6.99996 17.0001 7.04758 17.0001L6.99996 17.381H7.85711L8.23806 14.762C8.23806 13.6668 7.28568 13.6191 6.90473 13.6191L5.66663 14.5715ZM7.61901 15.6668C7.61901 15.8096 7.04758 16.5715 6.47616 16.5715C6.19044 16.5715 6.0952 16.3334 6.0952 16.1906C6.0952 15.9525 6.23806 15.6191 6.95235 15.6191C7.0952 15.6668 7.61901 15.6668 7.61901 15.6668Z" fill="#E6E6E6"/>
<path d="M8.09521 17.2858C8.09521 17.2858 8.38093 17.3811 9.19045 17.3811C9.42855 17.3811 10.619 17.4287 10.619 16.143C10.619 14.9525 9.47617 15.1906 9.47617 14.7144C9.47617 14.4763 9.66664 14.3811 9.99998 14.3811C10.1428 14.3811 10.6666 14.4287 10.6666 14.4287L10.8095 13.5716C10.8095 13.5716 10.4762 13.4763 9.90474 13.4763C9.19045 13.4763 8.95236 13.762 8.95236 14.7144C8.95236 15.8097 9.66664 15.7144 9.66664 16.143C9.66664 16.4287 9.33331 16.4763 9.09521 16.4763" fill="#E6E6E6"/>
<path d="M27.9524 14.0477C27.9524 14.0477 27.5715 13.5715 27.0477 13.5715C26.1905 13.5715 25.9048 14.6191 25.9048 15.8572C25.9048 16.6191 25.8096 17.4286 26.6191 17.4286C27.1905 17.4286 27.5239 17.0477 27.5239 17.0477L27.4763 17.381H28.4286L29.1429 12.8096L27.9524 14.0477ZM27.9048 15.2858C27.9048 15.8096 27.4763 16.4762 26.9524 16.4762C26.6191 16.4762 26.4286 16.1905 26.4286 15.7143C26.4286 14.9524 26.762 14.4762 27.1905 14.4762C27.5239 14.4762 27.9048 14.7143 27.9048 15.2858Z" fill="#E6E6E6"/>
<path d="M1.76194 17.3334L2.33337 13.9048L2.42861 17.3334H3.09527L4.33337 13.9048L3.80956 17.3334H4.80956L5.57146 12.762H4.38099L3.04765 15.5715L3.00004 12.762H2.47623L0.857178 17.3334H1.76194Z" fill="#E6E6E6"/>
<path d="M15.5239 17.3334H16.5239C16.8096 15.762 16.8573 14.4763 17.5239 14.7144C17.6192 14.0953 17.762 13.8572 17.8573 13.6191C17.8573 13.6191 17.8096 13.6191 17.6668 13.6191C17.2382 13.6191 16.9049 14.1906 16.9049 14.1906L17.0001 13.6668" fill="#E6E6E6"/>
<path d="M21.143 14.5715C21.143 14.5715 21.5715 14.381 22.1906 14.381C22.5239 14.381 22.8096 14.4287 22.8096 14.7144C22.8096 14.9049 22.762 14.9525 22.762 14.9525C22.762 14.9525 22.4763 14.9525 22.3334 14.9525C21.5239 14.9525 20.6191 15.2858 20.6191 16.381C20.6191 17.2382 21.1906 17.4287 21.5239 17.4287C22.1906 17.4287 22.4763 17.0001 22.5239 17.0001L22.4763 17.381H23.3334L23.7144 14.762C23.7144 13.6668 22.762 13.6191 22.381 13.6191L21.143 14.5715ZM23.0953 15.6668C23.0953 15.8096 22.5239 16.5715 21.9525 16.5715C21.6668 16.5715 21.5715 16.3334 21.5715 16.1906C21.5715 15.9525 21.7144 15.6191 22.4287 15.6191C22.6191 15.6668 23.0953 15.6668 23.0953 15.6668Z" fill="#E6E6E6"/>
<path d="M23.5239 17.3334H24.5239C24.8096 15.762 24.8573 14.4763 25.5239 14.7144C25.6192 14.0953 25.762 13.8572 25.8573 13.6191C25.8573 13.6191 25.8096 13.6191 25.6668 13.6191C25.2382 13.6191 24.9049 14.1906 24.9049 14.1906L25.0001 13.6668" fill="#E6E6E6"/>
</g>
<defs>
<clipPath id="clip0_1846_864">
<rect width="30" height="30" fill="white"/>
</clipPath>
</defs>
</svg>
