<svg width="30" height="30" viewBox="0 0 30 30" fill="none" xmlns="http://www.w3.org/2000/svg">
<path d="M23.4206 12.2995C22.6841 12.2995 22.0949 12.4959 21.6039 12.5941L21.4566 13.7234C21.7021 13.6252 22.3895 13.4288 22.9787 13.3797C23.5679 13.3797 23.9116 13.4779 23.8134 14.018C22.0458 14.018 20.8674 14.3617 20.6219 15.5401C20.2782 17.5041 22.4386 17.5532 23.2733 16.6694L23.1751 17.2095H24.7463L25.4337 14.018C25.6792 12.6923 24.5008 12.2504 23.4206 12.2995ZM23.5188 15.5892C23.4206 15.982 23.0769 16.1293 22.6841 16.1784C22.3404 16.1784 22.0458 15.982 22.2422 15.5892C22.4386 15.2946 22.8805 15.2946 23.2242 15.2946C23.3224 15.2946 23.4697 15.2946 23.617 15.2946C23.5679 15.2455 23.5188 15.4419 23.5188 15.5892Z" fill="#32A6CE"/>
<path d="M21.4566 13.7234C21.7021 13.6252 22.3895 13.4288 22.9787 13.3797C23.5679 13.3797 23.9116 13.4779 23.8134 14.018C22.0458 14.018 20.8674 14.3617 20.6219 15.5401C20.2782 17.5041 22.4386 17.5532 23.2733 16.6694L23.1751 17.2095H24.7463L25.4337 14.018C25.7283 12.6923 24.5008 12.3486 23.4206 12.3486L21.4566 13.7234ZM23.5188 15.5892C23.4206 15.982 23.0769 16.1293 22.6841 16.1784C22.3404 16.1784 22.0458 15.982 22.2422 15.5892C22.4386 15.2946 22.8805 15.2946 23.2242 15.2946C23.3224 15.2946 23.4697 15.2946 23.617 15.2946C23.5679 15.2455 23.5188 15.4419 23.5188 15.5892Z" fill="#1A80AD"/>
<path d="M26.7595 10.8267L25.4829 17.2096H27.0541L28.3798 10.8267H26.7595Z" fill="#32A6CE"/>
<path d="M27.8888 10.8267L25.4829 17.2096H27.0541L28.3798 10.8267H26.7595H27.8888Z" fill="#1A80AD"/>
<path d="M19.4435 10.8267H16.5466L15.27 17.2096H16.9885L17.4304 15.2456H18.6579C19.8363 15.2456 20.8183 14.5582 21.0638 13.3308C21.3093 11.9069 20.2782 10.8267 19.4435 10.8267ZM19.3944 13.0362C19.2962 13.4781 18.8543 13.7726 18.4124 13.7726H17.6268L17.9705 12.2997H18.8052C19.2471 12.2997 19.4926 12.5943 19.3944 13.0362Z" fill="#32A6CE"/>
<path d="M19.4435 10.8267H17.4795L15.2209 17.2096H16.9394L17.3813 15.2456H18.6088C19.7872 15.2456 20.7692 14.5582 21.0147 13.3308C21.3093 11.9069 20.2782 10.8267 19.4435 10.8267ZM19.3944 13.0362C19.2962 13.4781 18.8543 13.7726 18.4124 13.7726H17.6268L17.9705 12.2997H18.8052C19.2471 12.2997 19.4926 12.5943 19.3944 13.0362Z" fill="#1A80AD"/>
<path d="M8.1015 12.2995C7.365 12.2995 6.7758 12.4959 6.33391 12.5941L6.18661 13.7234C6.38301 13.6252 7.1195 13.4288 7.7087 13.3797C8.2979 13.3797 8.6416 13.4779 8.5434 14.018C6.8249 14.018 5.64651 14.3617 5.40101 15.5401C5.05731 17.5041 7.1686 17.5532 8.0033 16.6694L7.9051 17.2095H9.4763L10.1637 14.018C10.4092 12.6923 9.1817 12.2504 8.1015 12.2995ZM8.2488 15.5892C8.1506 15.982 7.8069 16.1293 7.4141 16.1784C7.0704 16.1784 6.7758 15.982 7.0213 15.5892C7.2177 15.2946 7.6596 15.2946 7.9542 15.2946C8.1015 15.2946 8.1997 15.2946 8.347 15.2946C8.2979 15.2455 8.2488 15.4419 8.2488 15.5892Z" fill="#21789E"/>
<path d="M6.23568 13.7234C6.43208 13.6252 7.16858 13.4288 7.75777 13.3797C8.34697 13.3797 8.69067 13.4779 8.59247 14.018C6.87398 14.018 5.69558 14.3617 5.45008 15.5401C5.10638 17.5041 7.21767 17.5532 8.05237 16.6694L7.90507 17.2095H9.47627L10.1637 14.018C10.4583 12.6923 9.23077 12.3486 8.15057 12.3486L6.23568 13.7234ZM8.24877 15.5892C8.15057 15.982 7.80687 16.1293 7.41407 16.1784C7.07038 16.1784 6.77578 15.982 7.02128 15.5892C7.21767 15.2946 7.65957 15.2946 7.95417 15.2946C8.10147 15.2946 8.19967 15.2946 8.34697 15.2946C8.29787 15.2455 8.24877 15.4419 8.24877 15.5892Z" fill="#1A5B80"/>
<path d="M10.802 12.2993H12.3732L12.6187 15.0489L14.1899 12.2993H15.8102L12.0786 19.1733H10.311L11.4403 17.1111L10.802 12.2993Z" fill="#21789E"/>
<path d="M12.3732 12.3975L12.6187 15.098L14.1899 12.2993H15.8102L12.0786 19.1733H10.311L11.4403 17.1602" fill="#1A5B80"/>
<path d="M4.22259 10.8267H1.2766L0 17.2096H1.71849L2.16039 15.2456H3.38789C4.56628 15.2456 5.54828 14.5582 5.79378 13.3308C6.08838 11.9069 5.05728 10.8267 4.22259 10.8267ZM4.17349 13.0362C4.07529 13.4781 3.63339 13.7726 3.19149 13.7726H2.40589L2.74959 12.2997H3.58429C4.02619 12.2997 4.27169 12.5943 4.17349 13.0362Z" fill="#21789E"/>
<path d="M4.22259 10.8267H2.89689L0 17.2096H1.71849L2.16039 15.2456H3.38789C4.56628 15.2456 5.54828 14.5582 5.79378 13.3308C6.08838 11.9069 5.05728 10.8267 4.22259 10.8267ZM4.17349 13.0362C4.07529 13.4781 3.63339 13.7726 3.19149 13.7726H2.40589L2.74959 12.2997H3.58429C4.02619 12.2997 4.27169 12.5943 4.17349 13.0362Z" fill="#1A5B80"/>
<path d="M7.8069 14.0178C6.4812 14.116 5.59741 14.5088 5.40101 15.4908C5.05731 17.4548 7.1686 17.5039 8.0033 16.6201L7.9051 17.2093H9.4763L9.7218 16.0309L7.8069 14.0178ZM8.2488 15.589C8.1506 15.9818 7.8069 16.1291 7.4141 16.1782C7.0704 16.1782 6.7758 15.9818 7.0213 15.589C7.2177 15.2944 7.6596 15.2944 7.9542 15.2944C8.1015 15.2944 8.1997 15.2944 8.347 15.2944C8.2979 15.2453 8.2488 15.4417 8.2488 15.589Z" fill="#06435E"/>
<path d="M12.7169 14.9998L12.6187 15.1471L13.6497 16.1291L15.8101 12.2993H14.1898L12.7169 14.9998Z" fill="#06435E"/>
<path d="M1.71841 17.2094L2.16031 15.2454L0.147217 17.2094H1.71841Z" fill="#06435E"/>
<path d="M16.9394 17.2094L17.3813 15.1472V15.1963L15.3682 17.2094H16.9394Z" fill="#2273AA"/>
<path d="M23.0769 14.0181C21.7512 14.1163 20.8674 14.5091 20.671 15.4911C20.3273 17.4551 22.4877 17.5042 23.3224 16.6204L23.1751 17.2096H24.7463L24.9918 16.0312L23.0769 14.0181ZM23.5188 15.5893C23.4206 15.9821 23.0769 16.1294 22.6841 16.1785C22.3404 16.1785 22.0458 15.9821 22.2422 15.5893C22.4386 15.2947 22.8805 15.2947 23.2242 15.2947C23.3224 15.2947 23.4697 15.2947 23.617 15.2947C23.5679 15.2456 23.5188 15.442 23.5188 15.5893Z" fill="#2273AA"/>
<path d="M26.612 14.3125L25.4827 17.2094H27.0539L27.4958 15.2454L26.612 14.3125Z" fill="#2273AA"/>
<path d="M28.7233 11.8576V11.1702H28.4778V11.072H29.1161V11.1702H28.8706V11.8576H28.7233Z" fill="#32A6CE"/>
<path d="M29.2144 11.8576V11.072H29.3617L29.5581 11.6121C29.5581 11.6612 29.6072 11.7103 29.6072 11.7103C29.6072 11.6612 29.6072 11.6612 29.6563 11.563L29.8527 11.0229H30V11.8085H29.9018V11.1211L29.6563 11.8085H29.509L29.2635 11.1211V11.8085H29.2144V11.8576Z" fill="#32A6CE"/>
</svg>
