<svg width="20" height="16" viewBox="0 0 20 16" fill="none" xmlns="http://www.w3.org/2000/svg">
<path d="M19.0309 2.30995C18.3627 2.60604 17.6449 2.8061 16.8903 2.89653C17.6689 2.43062 18.2514 1.69733 18.5292 0.833499C17.7976 1.26802 16.997 1.57388 16.1621 1.73777C15.6006 1.13828 14.8569 0.740932 14.0465 0.607409C13.236 0.473887 12.4042 0.611665 11.6801 0.999352C10.956 1.38704 10.3801 2.00294 10.0419 2.75145C9.70371 3.49995 9.62209 4.33917 9.80972 5.13881C8.32742 5.06438 6.87733 4.67911 5.55356 4.00799C4.2298 3.33687 3.06194 2.3949 2.12578 1.24322C1.80568 1.79539 1.62163 2.43559 1.62163 3.11739C1.62127 3.73118 1.77242 4.33556 2.06166 4.87692C2.35091 5.41827 2.76931 5.87987 3.27973 6.22074C2.68777 6.2019 2.10887 6.04195 1.59122 5.7542V5.80221C1.59116 6.66307 1.88893 7.49743 2.43402 8.16373C2.97911 8.83002 3.73793 9.28722 4.58173 9.45772C4.03259 9.60634 3.45686 9.62823 2.89802 9.52174C3.13609 10.2625 3.59983 10.9102 4.22431 11.3742C4.8488 11.8383 5.60277 12.0955 6.38068 12.1097C5.06014 13.1464 3.42929 13.7087 1.75047 13.7062C1.45308 13.7063 1.15595 13.6889 0.860596 13.6542C2.5647 14.7499 4.54839 15.3314 6.57434 15.3291C13.4324 15.3291 17.1816 9.64898 17.1816 4.72268C17.1816 4.56263 17.1776 4.40098 17.1704 4.24094C17.8996 3.71356 18.5291 3.06049 19.0293 2.31235L19.0309 2.30995Z" fill="#E6E6E6"/>
</svg>
