<svg width="30" height="30" viewBox="0 0 30 30" fill="none" xmlns="http://www.w3.org/2000/svg">
<g clip-path="url(#clip0_1846_992)">
<path d="M11 19.3095L12.5238 10.738H14.9048L13.4286 19.3095H11Z" fill="#3C58BF"/>
<path d="M11 19.3095L12.9524 10.738H14.9048L13.4286 19.3095H11Z" fill="#293688"/>
<path d="M22.0477 10.8333C21.5715 10.6429 20.8096 10.4524 19.8572 10.4524C17.4762 10.4524 15.762 11.6429 15.762 13.3572C15.762 14.6429 16.9524 15.3095 17.9048 15.7381C18.8572 16.1667 19.1429 16.4524 19.1429 16.8333C19.1429 17.4048 18.381 17.6905 17.7143 17.6905C16.762 17.6905 16.2382 17.5476 15.4286 17.2143L15.0953 17.0714L14.762 19.0238C15.3334 19.2619 16.381 19.5 17.4762 19.5C20.0001 19.5 21.6667 18.3095 21.6667 16.5C21.6667 15.5 21.0477 14.7381 19.6191 14.1191C18.762 13.6905 18.2382 13.4524 18.2382 13.0238C18.2382 12.6429 18.6667 12.2619 19.6191 12.2619C20.4286 12.2619 21.0001 12.4048 21.4286 12.5952L21.6667 12.6905L22.0477 10.8333Z" fill="#3C58BF"/>
<path d="M22.0477 10.8333C21.5715 10.6429 20.8096 10.4524 19.8572 10.4524C17.4762 10.4524 16.1905 11.6429 16.1905 13.3572C16.1905 14.6429 16.9524 15.3095 17.9048 15.7381C18.8572 16.1667 19.1429 16.4524 19.1429 16.8333C19.1429 17.4048 18.381 17.6905 17.7143 17.6905C16.762 17.6905 16.2382 17.5476 15.4286 17.2143L15.0953 17.0714L14.762 19.0238C15.3334 19.2619 16.381 19.5 17.4762 19.5C20.0001 19.5 21.6667 18.3095 21.6667 16.5C21.6667 15.5 21.0477 14.7381 19.6191 14.1191C18.762 13.6905 18.2382 13.4524 18.2382 13.0238C18.2382 12.6429 18.6667 12.2619 19.6191 12.2619C20.4286 12.2619 21.0001 12.4048 21.4286 12.5952L21.6667 12.6905L22.0477 10.8333Z" fill="#293688"/>
<path d="M26.1428 10.738C25.5714 10.738 25.1428 10.7857 24.9047 11.3571L21.3333 19.3095H23.9047L24.3809 17.8809H27.4285L27.7142 19.3095H29.9999L27.9999 10.738H26.1428ZM25.0475 16.4523C25.1904 16.0238 25.9999 13.9285 25.9999 13.9285C25.9999 13.9285 26.1904 13.4047 26.3333 13.0714L26.4761 13.8809C26.4761 13.8809 26.9523 16.0238 27.0475 16.4999H25.0475V16.4523Z" fill="#3C58BF"/>
<path d="M26.7142 10.738C26.1428 10.738 25.7142 10.7857 25.4761 11.3571L21.3333 19.3095H23.9047L24.3809 17.8809H27.4285L27.7142 19.3095H29.9999L27.9999 10.738H26.7142ZM25.0475 16.4523C25.238 15.9761 25.9999 13.9285 25.9999 13.9285C25.9999 13.9285 26.1904 13.4047 26.3333 13.0714L26.4761 13.8809C26.4761 13.8809 26.9523 16.0238 27.0475 16.4999H25.0475V16.4523Z" fill="#293688"/>
<path d="M6.61904 16.738L6.38094 15.4999C5.95237 14.0714 4.57142 12.4999 3.04761 11.738L5.19046 19.3571H7.76189L11.619 10.7856H9.04761L6.61904 16.738Z" fill="#3C58BF"/>
<path d="M6.61904 16.738L6.38094 15.4999C5.95237 14.0714 4.57142 12.4999 3.04761 11.738L5.19046 19.3571H7.76189L11.619 10.7856H9.5238L6.61904 16.738Z" fill="#293688"/>
<path d="M0 10.738L0.428571 10.8333C3.47619 11.5476 5.57143 13.3571 6.38095 15.4999L5.52381 11.4523C5.38095 10.8809 4.95238 10.738 4.42857 10.738H0Z" fill="#FFBC00"/>
<path d="M0 10.738C3.04762 11.4523 5.57143 13.3095 6.38095 15.4523L5.57143 12.0714C5.42857 11.4999 4.95238 11.1666 4.42857 11.1666L0 10.738Z" fill="#F7981D"/>
<path d="M0 10.738C3.04762 11.4523 5.57143 13.3095 6.38095 15.4523L5.80952 13.5952C5.66667 13.0238 5.47619 12.4523 4.80952 12.2142L0 10.738Z" fill="#ED7C00"/>
<path d="M8.99998 16.4523L7.38093 14.8333L6.61902 16.6428L6.42855 15.4523C5.99998 14.0238 4.61902 12.4523 3.09521 11.6904L5.23807 19.3095H7.8095L8.99998 16.4523Z" fill="#051244"/>
<path d="M13.4286 19.3096L11.381 17.2144L11 19.3096H13.4286Z" fill="#051244"/>
<path d="M18.9048 16.3572C19.0953 16.5477 19.1905 16.6905 19.1429 16.881C19.1429 17.4524 18.381 17.7381 17.7143 17.7381C16.762 17.7381 16.2382 17.5953 15.4286 17.2619L15.0953 17.1191L14.762 19.0715C15.3334 19.3096 16.381 19.5477 17.4762 19.5477C19.0001 19.5477 20.2382 19.1191 20.9524 18.3572L18.9048 16.3572Z" fill="#051244"/>
<path d="M21.6667 19.3096H23.9048L24.381 17.8811H27.4287L27.7144 19.3096H30.0001L29.1906 15.8334L26.3334 13.0715L26.4763 13.8334C26.4763 13.8334 26.9525 15.9763 27.0477 16.4525H25.0477C25.2382 15.9763 26.0001 13.9287 26.0001 13.9287C26.0001 13.9287 26.1906 13.4049 26.3334 13.0715" fill="#051244"/>
</g>
<defs>
<clipPath id="clip0_1846_992">
<rect width="30" height="30" fill="white"/>
</clipPath>
</defs>
</svg>
