<svg width="18" height="13" viewBox="0 0 18 13" fill="none" xmlns="http://www.w3.org/2000/svg">
<path d="M16.9715 2.8157C16.8758 2.45942 16.6882 2.13451 16.4276 1.87348C16.1669 1.61246 15.8422 1.42449 15.486 1.32838C14.175 0.975769 8.91965 0.975769 8.91965 0.975769C8.91965 0.975769 3.6643 0.975769 2.35327 1.3265C1.99695 1.4223 1.67211 1.61017 1.41137 1.87124C1.15063 2.13231 0.963174 2.45739 0.867822 2.81383C0.51709 4.12673 0.51709 6.86506 0.51709 6.86506C0.51709 6.86506 0.51709 9.6034 0.867822 10.9144C1.06101 11.6384 1.63118 12.2086 2.35327 12.4017C3.6643 12.7544 8.91965 12.7544 8.91965 12.7544C8.91965 12.7544 14.175 12.7544 15.486 12.4017C16.21 12.2086 16.7783 11.6384 16.9715 10.9144C17.3222 9.6034 17.3222 6.86506 17.3222 6.86506C17.3222 6.86506 17.3222 4.12673 16.9715 2.8157ZM7.25039 9.37833V4.3518L11.6017 6.84631L7.25039 9.37833Z" fill="#E6E6E6"/>
</svg>
